# Created by Kenney (www.kenney.nl)

mtllib target.mtl

g target

v 3.248601E-14 0.2811594 0.1389342 1 1 1
v -0.04384062 0.2987 0.1342342 1 1 1
v 0.04384062 0.2987 0.1342342 1 1 1
v 0.062 0.3410468 0.1228874 1 1 1
v -0.062 0.3410468 0.1228874 1 1 1
v 0.04384062 0.3833936 0.1115406 1 1 1
v -0.04384062 0.3833936 0.1115406 1 1 1
v 3.248601E-14 0.4009342 0.1068406 1 1 1
v 3.248601E-14 0.1613846 0.1710277 1 1 1
v -0.1315219 0.2140064 0.1569277 1 1 1
v 0.1315219 0.2140064 0.1569277 1 1 1
v 3.248601E-14 0.221272 0.154981 1 1 1
v 0.08768124 0.2563532 0.145581 1 1 1
v -0.08768124 0.2563532 0.145581 1 1 1
v 0.186 0.3410468 0.1228874 1 1 1
v 0.124 0.3410468 0.1228874 1 1 1
v -0.186 0.3410468 0.1228874 1 1 1
v -0.124 0.3410468 0.1228874 1 1 1
v -0.08768124 0.4257403 0.1001938 1 1 1
v 0.1315219 0.4680871 0.08884703 1 1 1
v -0.1315219 0.4680871 0.08884703 1 1 1
v 0.08768124 0.4257403 0.1001938 1 1 1
v 3.248601E-14 0.4608216 0.09079383 1 1 1
v 3.248601E-14 0.5207089 0.07474706 1 1 1
v -0.248 0.325 0.06299999 1 1 1
v -0.248 0.3410468 0.1228874 1 1 1
v -0.1753625 0.1556129 0.1083871 1 1 1
v -0.1753625 0.1716596 0.1682746 1 1 1
v -0.1753625 0.4943871 0.01761284 1 1 1
v -0.1753625 0.510434 0.07750025 1 1 1
v 1.516014E-14 0.5645496 -0.001187131 1 1 1
v 3.213112E-14 0.5805964 0.05870028 1 1 1
v 0.1753625 0.4943871 0.01761284 1 1 1
v 0.1753625 0.510434 0.07750025 1 1 1
v 0.1753625 0.1716596 0.1682746 1 1 1
v 0.1753625 0.1556129 0.1083871 1 1 1
v 3.213112E-14 0.1014972 0.1870745 1 1 1
v 1.516014E-14 0.08545039 0.1271871 1 1 1
v 0.248 0.325 0.06299999 1 1 1
v 0.248 0.3410468 0.1228874 1 1 1
v 3.213112E-14 0.221272 0.154981 1 1 1
v -0.08768125 0.2563532 0.145581 1 1 1
v 0.08768125 0.2563532 0.145581 1 1 1
v 3.213112E-14 0.2811594 0.1389342 1 1 1
v 0.04384062 0.2987 0.1342342 1 1 1
v -0.04384062 0.2987 0.1342342 1 1 1
v -0.124 0.3410468 0.1228874 1 1 1
v -0.062 0.3410468 0.1228874 1 1 1
v 0.124 0.3410468 0.1228874 1 1 1
v 0.062 0.3410468 0.1228874 1 1 1
v 0.04384062 0.3833936 0.1115406 1 1 1
v -0.08768125 0.4257404 0.1001938 1 1 1
v 0.08768125 0.4257404 0.1001938 1 1 1
v -0.04384062 0.3833936 0.1115406 1 1 1
v 3.213112E-14 0.4009342 0.1068406 1 1 1
v 3.213112E-14 0.4608216 0.09079383 1 1 1
v 3.213112E-14 0.520709 0.07474706 1 1 1
v 0.1315219 0.4680871 0.08884704 1 1 1
v -0.1315219 0.4680871 0.08884704 1 1 1
v 0.186 0.3410468 0.1228874 1 1 1
v 0.1315219 0.2140064 0.1569278 1 1 1
v -0.186 0.3410468 0.1228874 1 1 1
v -0.1315219 0.2140064 0.1569278 1 1 1
v 3.213112E-14 0.1613846 0.1710277 1 1 1
v -0.08499999 0.3 -0.049 1 1 1
v -0.11 0.3 -0.074 1 1 1
v -0.08499999 0.3 0.101 1 1 1
v -0.21 0.3 0.101 1 1 1
v -0.185 0.3 -0.074 1 1 1
v -0.21 0.3 -0.049 1 1 1
v -0.08499999 0.35 -0.049 1 1 1
v -0.08499999 0.35 0.101 1 1 1
v -0.11 0.35 -0.074 1 1 1
v -0.21 0.35 0.101 1 1 1
v -0.185 0.35 -0.074 1 1 1
v -0.21 0.35 -0.049 1 1 1
v 0.21 0.3 -0.049 1 1 1
v 0.185 0.3 -0.074 1 1 1
v 0.21 0.3 0.101 1 1 1
v 0.08499999 0.3 0.101 1 1 1
v 0.11 0.3 -0.074 1 1 1
v 0.08499999 0.3 -0.049 1 1 1
v 0.21 0.35 -0.049 1 1 1
v 0.21 0.35 0.101 1 1 1
v 0.185 0.35 -0.074 1 1 1
v 0.08499999 0.35 0.101 1 1 1
v 0.11 0.35 -0.074 1 1 1
v 0.08499999 0.35 -0.049 1 1 1
v 0.0625 0.3 -0.1491043 1 1 1
v 0.0375 0.3 -0.1741043 1 1 1
v 0.0625 0.3 0.051 1 1 1
v -0.0625 0.3 0.051 1 1 1
v -0.0375 0.3 -0.1741043 1 1 1
v -0.0625 0.3 -0.1491043 1 1 1
v 0.0625 0.35 -0.1491043 1 1 1
v 0.0625 0.35 0.051 1 1 1
v 0.0375 0.35 -0.1741043 1 1 1
v -0.0625 0.35 0.051 1 1 1
v -0.0375 0.35 -0.1741043 1 1 1
v -0.0625 0.35 -0.1491043 1 1 1
v 0.0375 0.4 -0.099 1 1 1
v 0.0375 0.4 -0.024 1 1 1
v -0.0375 0.4 -0.099 1 1 1
v -0.0375 0.4 -0.024 1 1 1
v -0.0375 0.03 -0.284 1 1 1
v 0.0375 0.03 -0.284 1 1 1
v 0.0375 -1.07926E-14 -0.224 1 1 1
v -0.0375 -1.07926E-14 -0.224 1 1 1
v 0.1753625 0.1556129 0.1083871 1 1 1
v 0.1753625 0.1395661 0.04849975 1 1 1
v 1.534365E-14 0.08545039 0.1271871 1 1 1
v -2.522502E-15 0.06940361 0.06729972 1 1 1
v -0.248 0.3089532 0.003112592 1 1 1
v -0.248 0.325 0.063 1 1 1
v -0.1753625 0.1395661 0.04849975 1 1 1
v -0.1753625 0.1556129 0.1083871 1 1 1
v -0.1753625 0.4783404 -0.04227456 1 1 1
v -0.1753625 0.4943871 0.01761285 1 1 1
v 0.248 0.3089532 0.003112592 1 1 1
v 0.1753625 0.4783404 -0.04227456 1 1 1
v -2.522502E-15 0.5485029 -0.06107453 1 1 1
v 0.1753625 0.4943871 0.01761285 1 1 1
v 0.248 0.325 0.063 1 1 1
v 1.534365E-14 0.5645496 -0.001187123 1 1 1
v -0.2 -1.07926E-14 0.126 1 1 1
v -0.2 -1.07926E-14 0.051 1 1 1
v -0.275 -1.07926E-14 0.126 1 1 1
v -0.275 -1.07926E-14 0.051 1 1 1
v -0.1 0.4 -0.049 1 1 1
v -0.1 0.4 0.026 1 1 1
v -0.175 0.4 -0.049 1 1 1
v -0.175 0.4 0.026 1 1 1
v 0.275 -1.07926E-14 0.126 1 1 1
v 0.275 -1.07926E-14 0.051 1 1 1
v 0.2 -1.07926E-14 0.126 1 1 1
v 0.2 -1.07926E-14 0.051 1 1 1
v 0.175 0.4 -0.049 1 1 1
v 0.175 0.4 0.026 1 1 1
v 0.1 0.4 -0.049 1 1 1
v 0.1 0.4 0.026 1 1 1

vn 2.686878E-13 0.258819 0.9659259
vn -1 7.084537E-14 2.643986E-13
vn -0.7071068 -0.6830127 0.1830127
vn -0.7071068 0.6830127 -0.1830127
vn 0 0.9659259 -0.258819
vn 0.7071068 0.6830127 -0.1830127
vn 0.7071068 -0.6830127 0.1830127
vn 0 -0.9659259 0.258819
vn 1 -7.084537E-14 -2.643986E-13
vn 2.737255E-13 0.258819 0.9659259
vn 0 -1 0
vn 0 1 0
vn -0.3826834 0 -0.9238795
vn 0.3826834 0 -0.9238795
vn 0 0 1
vn 0.9238795 0 -0.3826834
vn -0.9238795 0 -0.3826834
vn 1 0 0
vn -1 0 0
vn -0.7071068 0.3162278 -0.6324555
vn 0.7071068 0.3162278 -0.6324555
vn -0.7915248 0.2733088 -0.5466176
vn 0.7915248 0.2733088 -0.5466176
vn 0.7071068 -0.3162278 0.6324555
vn 0.5761105 -0.3655398 0.7310796
vn -0.7071068 -0.3162278 0.6324555
vn -0.5761105 -0.3655398 0.7310796
vn 0 -0.8944272 -0.4472136
vn -2.737255E-13 -0.258819 -0.9659259
vn -0.803908 0.05287743 -0.5923983
vn 0.6666667 -0.3333333 -0.6666667
vn -0.5923983 -0.05287743 -0.803908
vn 0.803908 -0.05287743 0.5923983
vn 0.5923983 0.05287743 0.803908
vn -0.6666667 0.3333333 0.6666667
vn -0.6666667 -0.3333333 -0.6666667
vn 0.803908 0.05287743 -0.5923983
vn 0.5923983 -0.05287743 -0.803908
vn 0.6666667 0.3333333 0.6666667
vn -0.5923983 0.05287743 0.803908
vn -0.803908 -0.05287743 0.5923983

vt 0.84375 0.09166668
vt 0.84375 0.1014298
vt 0.84375 0.125
vt 0.84375 0.1485702
vt 0.84375 0.1583333
vt 0.84375 0.025
vt 0.84375 0.05428932
vt 0.84375 0.05833334
vt 0.84375 0.07785955
vt 0.84375 0.1721404
vt 0.84375 0.1957107
vt 0.84375 0.1916667
vt 0.84375 0.225
vt 0.84375 0.375
vt 0.84375 0.3042893
vt 0.84375 0.4457107
vt 0.84375 0.475
vt 0.84375 0.275
vt 0.84375 0.325
vt 0.84375 0.3396446
vt 0.84375 0.35
vt 0.84375 0.3573223
vt 0.84375 0.3926777
vt 0.84375 0.4103553
vt 0.84375 0.4
vt 0.84375 0.425
vt 0.84375 0.45
vt 0.84375 0.428033
vt 0.84375 0.321967
vt 0.84375 0.3
vt 0.09375 0.025
vt 0.09375 0.225
vt 0.96875 0.225
vt 0.96875 0.04
vt 0.96875 0.025
vt 0.96875 0.1567157
vt 0.96875 0.145
vt 0.96875 0.185
vt 0.96875 0.2132843

usemtl colormap

f 3/2/1 2/2/1 1/1/1
f 2/2/1 3/2/1 4/3/1
f 2/2/1 4/3/1 5/3/1
f 5/3/1 4/3/1 6/4/1
f 5/3/1 6/4/1 7/4/1
f 7/4/1 6/4/1 8/5/1
f 11/7/1 10/7/1 9/6/1
f 10/7/1 11/7/1 12/8/1
f 12/8/1 11/7/1 13/9/1
f 14/9/1 10/7/1 12/8/1
f 13/9/1 11/7/1 15/3/1
f 13/9/1 15/3/1 16/3/1
f 10/7/1 14/9/1 17/3/1
f 17/3/1 14/9/1 18/3/1
f 17/3/1 18/3/1 19/10/1
f 16/3/1 15/3/1 20/11/1
f 17/3/1 19/10/1 21/11/1
f 16/3/1 20/11/1 22/10/1
f 21/11/1 19/10/1 23/12/1
f 22/10/1 20/11/1 23/12/1
f 21/11/1 23/12/1 20/11/1
f 21/11/1 20/11/1 24/13/1
f 27/15/3 26/14/2 25/14/2
f 26/14/2 27/15/3 28/15/3
f 25/14/2 30/16/4 29/16/4
f 30/16/4 25/14/2 26/14/2
f 29/16/4 32/17/5 31/17/5
f 32/17/5 29/16/4 30/16/4
f 31/17/5 34/16/6 33/16/6
f 34/16/6 31/17/5 32/17/5
f 37/18/8 36/15/7 35/15/7
f 36/15/7 37/18/8 38/18/8
f 28/15/3 38/18/8 37/18/8
f 38/18/8 28/15/3 27/15/3
f 34/16/6 39/14/9 33/16/6
f 39/14/9 34/16/6 40/14/9
f 43/20/10 42/20/10 41/19/10
f 42/20/10 43/20/10 44/21/10
f 44/21/10 43/20/10 45/22/10
f 46/22/10 42/20/10 44/21/10
f 42/20/10 46/22/10 47/14/10
f 47/14/10 46/22/10 48/14/10
f 45/22/10 43/20/10 49/14/10
f 45/22/10 49/14/10 50/14/10
f 50/14/10 49/14/10 51/23/10
f 47/14/10 48/14/10 52/24/10
f 51/23/10 49/14/10 53/24/10
f 52/24/10 48/14/10 54/23/10
f 51/23/10 53/24/10 55/25/10
f 52/24/10 54/23/10 55/25/10
f 52/24/10 55/25/10 53/24/10
f 52/24/10 53/24/10 56/26/10
f 40/14/9 36/15/7 39/14/9
f 36/15/7 40/14/9 35/15/7
f 57/27/10 34/16/10 32/17/10
f 30/16/10 57/27/10 32/17/10
f 58/28/10 34/16/10 57/27/10
f 30/16/10 59/28/10 57/27/10
f 60/14/10 34/16/10 58/28/10
f 60/14/10 40/14/10 34/16/10
f 61/29/10 40/14/10 60/14/10
f 61/29/10 35/15/10 40/14/10
f 26/14/10 59/28/10 30/16/10
f 26/14/10 62/14/10 59/28/10
f 26/14/10 63/29/10 62/14/10
f 28/15/10 63/29/10 26/14/10
f 64/30/10 35/15/10 61/29/10
f 28/15/10 64/30/10 63/29/10
f 35/15/10 64/30/10 37/18/10
f 64/30/10 28/15/10 37/18/10
f 67/31/11 66/31/11 65/31/11
f 66/31/11 67/31/11 68/31/11
f 66/31/11 68/31/11 69/31/11
f 69/31/11 68/31/11 70/31/11
f 73/32/12 72/32/12 71/32/12
f 72/32/12 73/32/12 74/32/12
f 74/32/12 73/32/12 75/32/12
f 74/32/12 75/32/12 76/32/12
f 75/32/13 66/31/14 69/31/13
f 66/31/14 75/32/13 73/32/14
f 72/32/15 68/31/15 67/31/15
f 68/31/15 72/32/15 74/32/15
f 71/32/16 66/31/14 73/32/14
f 66/31/14 71/32/16 65/31/16
f 70/31/17 75/32/13 69/31/13
f 75/32/13 70/31/17 76/32/17
f 72/32/18 65/31/16 71/32/16
f 65/31/16 72/32/18 67/31/18
f 68/31/19 76/32/17 70/31/17
f 76/32/17 68/31/19 74/32/19
f 79/31/11 78/31/11 77/31/11
f 78/31/11 79/31/11 80/31/11
f 78/31/11 80/31/11 81/31/11
f 81/31/11 80/31/11 82/31/11
f 85/32/12 84/32/12 83/32/12
f 84/32/12 85/32/12 86/32/12
f 86/32/12 85/32/12 87/32/12
f 86/32/12 87/32/12 88/32/12
f 87/32/13 78/31/14 81/31/13
f 78/31/14 87/32/13 85/32/14
f 84/32/15 80/31/15 79/31/15
f 80/31/15 84/32/15 86/32/15
f 83/32/16 78/31/14 85/32/14
f 78/31/14 83/32/16 77/31/16
f 82/31/17 87/32/13 81/31/13
f 87/32/13 82/31/17 88/32/17
f 84/32/18 77/31/16 83/32/16
f 77/31/16 84/32/18 79/31/18
f 80/31/19 88/32/17 82/31/17
f 88/32/17 80/31/19 86/32/19
f 91/31/11 90/31/11 89/31/11
f 90/31/11 91/31/11 92/31/11
f 90/31/11 92/31/11 93/31/11
f 93/31/11 92/31/11 94/31/11
f 97/32/12 96/32/12 95/32/12
f 96/32/12 97/32/12 98/32/12
f 98/32/12 97/32/12 99/32/12
f 98/32/12 99/32/12 100/32/12
f 99/32/13 90/31/14 93/31/13
f 90/31/14 99/32/13 97/32/14
f 96/32/15 92/31/15 91/31/15
f 92/31/15 96/32/15 98/32/15
f 95/32/16 90/31/14 97/32/14
f 90/31/14 95/32/16 89/31/16
f 94/31/17 99/32/13 93/31/13
f 99/32/13 94/31/17 100/32/17
f 96/32/18 89/31/16 95/32/16
f 89/31/16 96/32/18 91/31/18
f 92/31/19 100/32/17 94/31/17
f 100/32/17 92/31/19 98/32/19
f 103/33/12 102/33/12 101/33/12
f 102/33/12 103/33/12 104/33/12
f 103/33/22 106/34/21 105/34/20
f 106/34/21 103/33/22 101/33/23
f 101/33/23 107/35/24 106/34/21
f 107/35/24 101/33/23 102/33/25
f 102/33/25 108/35/26 107/35/24
f 108/35/26 102/33/25 104/33/27
f 108/35/26 103/33/22 105/34/20
f 103/33/22 108/35/26 104/33/27
f 108/35/28 106/34/28 107/35/28
f 106/34/28 108/35/28 105/34/28
f 111/37/8 110/36/7 109/36/7
f 110/36/7 111/37/8 112/37/8
f 115/36/3 114/38/2 113/38/2
f 114/38/2 115/36/3 116/36/3
f 116/36/3 112/37/8 111/37/8
f 112/37/8 116/36/3 115/36/3
f 113/38/2 118/39/4 117/39/4
f 118/39/4 113/38/2 114/38/2
f 115/36/29 110/36/29 112/37/29
f 110/36/29 115/36/29 113/38/29
f 110/36/29 113/38/29 119/38/29
f 119/38/29 113/38/29 117/39/29
f 119/38/29 117/39/29 120/39/29
f 120/39/29 117/39/29 121/33/29
f 122/39/6 119/38/9 120/39/6
f 119/38/9 122/39/6 123/38/9
f 123/38/9 110/36/7 119/38/9
f 110/36/7 123/38/9 109/36/7
f 121/33/5 118/39/4 124/33/5
f 118/39/4 121/33/5 117/39/4
f 120/39/6 124/33/5 122/39/6
f 124/33/5 120/39/6 121/33/5
f 127/33/11 126/33/11 125/33/11
f 126/33/11 127/33/11 128/33/11
f 131/35/12 130/35/12 129/35/12
f 130/35/12 131/35/12 132/35/12
f 131/35/32 126/33/31 128/33/30
f 126/33/31 131/35/32 129/35/31
f 130/35/33 126/33/31 129/35/31
f 126/33/31 130/35/33 125/33/34
f 130/35/33 127/33/35 125/33/34
f 127/33/35 130/35/33 132/35/35
f 128/33/30 132/35/35 131/35/32
f 132/35/35 128/33/30 127/33/35
f 135/33/11 134/33/11 133/33/11
f 134/33/11 135/33/11 136/33/11
f 139/35/12 138/35/12 137/35/12
f 138/35/12 139/35/12 140/35/12
f 139/35/36 134/33/37 136/33/36
f 134/33/37 139/35/36 137/35/38
f 138/35/39 134/33/37 137/35/38
f 134/33/37 138/35/39 133/33/39
f 138/35/39 135/33/40 133/33/39
f 135/33/40 138/35/39 140/35/41
f 136/33/36 140/35/41 139/35/36
f 140/35/41 136/33/36 135/33/40

g target




usemtl colormap

f 3/2/1 2/2/1 1/1/1
f 2/2/1 3/2/1 4/3/1
f 2/2/1 4/3/1 5/3/1
f 5/3/1 4/3/1 6/4/1
f 5/3/1 6/4/1 7/4/1
f 7/4/1 6/4/1 8/5/1
f 11/7/1 10/7/1 9/6/1
f 10/7/1 11/7/1 12/8/1
f 12/8/1 11/7/1 13/9/1
f 14/9/1 10/7/1 12/8/1
f 13/9/1 11/7/1 15/3/1
f 13/9/1 15/3/1 16/3/1
f 10/7/1 14/9/1 17/3/1
f 17/3/1 14/9/1 18/3/1
f 17/3/1 18/3/1 19/10/1
f 16/3/1 15/3/1 20/11/1
f 17/3/1 19/10/1 21/11/1
f 16/3/1 20/11/1 22/10/1
f 21/11/1 19/10/1 23/12/1
f 22/10/1 20/11/1 23/12/1
f 21/11/1 23/12/1 20/11/1
f 21/11/1 20/11/1 24/13/1
f 27/15/3 26/14/2 25/14/2
f 26/14/2 27/15/3 28/15/3
f 25/14/2 30/16/4 29/16/4
f 30/16/4 25/14/2 26/14/2
f 29/16/4 32/17/5 31/17/5
f 32/17/5 29/16/4 30/16/4
f 31/17/5 34/16/6 33/16/6
f 34/16/6 31/17/5 32/17/5
f 37/18/8 36/15/7 35/15/7
f 36/15/7 37/18/8 38/18/8
f 28/15/3 38/18/8 37/18/8
f 38/18/8 28/15/3 27/15/3
f 34/16/6 39/14/9 33/16/6
f 39/14/9 34/16/6 40/14/9
f 43/20/10 42/20/10 41/19/10
f 42/20/10 43/20/10 44/21/10
f 44/21/10 43/20/10 45/22/10
f 46/22/10 42/20/10 44/21/10
f 42/20/10 46/22/10 47/14/10
f 47/14/10 46/22/10 48/14/10
f 45/22/10 43/20/10 49/14/10
f 45/22/10 49/14/10 50/14/10
f 50/14/10 49/14/10 51/23/10
f 47/14/10 48/14/10 52/24/10
f 51/23/10 49/14/10 53/24/10
f 52/24/10 48/14/10 54/23/10
f 51/23/10 53/24/10 55/25/10
f 52/24/10 54/23/10 55/25/10
f 52/24/10 55/25/10 53/24/10
f 52/24/10 53/24/10 56/26/10
f 40/14/9 36/15/7 39/14/9
f 36/15/7 40/14/9 35/15/7
f 57/27/10 34/16/10 32/17/10
f 30/16/10 57/27/10 32/17/10
f 58/28/10 34/16/10 57/27/10
f 30/16/10 59/28/10 57/27/10
f 60/14/10 34/16/10 58/28/10
f 60/14/10 40/14/10 34/16/10
f 61/29/10 40/14/10 60/14/10
f 61/29/10 35/15/10 40/14/10
f 26/14/10 59/28/10 30/16/10
f 26/14/10 62/14/10 59/28/10
f 26/14/10 63/29/10 62/14/10
f 28/15/10 63/29/10 26/14/10
f 64/30/10 35/15/10 61/29/10
f 28/15/10 64/30/10 63/29/10
f 35/15/10 64/30/10 37/18/10
f 64/30/10 28/15/10 37/18/10
f 67/31/11 66/31/11 65/31/11
f 66/31/11 67/31/11 68/31/11
f 66/31/11 68/31/11 69/31/11
f 69/31/11 68/31/11 70/31/11
f 73/32/12 72/32/12 71/32/12
f 72/32/12 73/32/12 74/32/12
f 74/32/12 73/32/12 75/32/12
f 74/32/12 75/32/12 76/32/12
f 75/32/13 66/31/14 69/31/13
f 66/31/14 75/32/13 73/32/14
f 72/32/15 68/31/15 67/31/15
f 68/31/15 72/32/15 74/32/15
f 71/32/16 66/31/14 73/32/14
f 66/31/14 71/32/16 65/31/16
f 70/31/17 75/32/13 69/31/13
f 75/32/13 70/31/17 76/32/17
f 72/32/18 65/31/16 71/32/16
f 65/31/16 72/32/18 67/31/18
f 68/31/19 76/32/17 70/31/17
f 76/32/17 68/31/19 74/32/19
f 79/31/11 78/31/11 77/31/11
f 78/31/11 79/31/11 80/31/11
f 78/31/11 80/31/11 81/31/11
f 81/31/11 80/31/11 82/31/11
f 85/32/12 84/32/12 83/32/12
f 84/32/12 85/32/12 86/32/12
f 86/32/12 85/32/12 87/32/12
f 86/32/12 87/32/12 88/32/12
f 87/32/13 78/31/14 81/31/13
f 78/31/14 87/32/13 85/32/14
f 84/32/15 80/31/15 79/31/15
f 80/31/15 84/32/15 86/32/15
f 83/32/16 78/31/14 85/32/14
f 78/31/14 83/32/16 77/31/16
f 82/31/17 87/32/13 81/31/13
f 87/32/13 82/31/17 88/32/17
f 84/32/18 77/31/16 83/32/16
f 77/31/16 84/32/18 79/31/18
f 80/31/19 88/32/17 82/31/17
f 88/32/17 80/31/19 86/32/19
f 91/31/11 90/31/11 89/31/11
f 90/31/11 91/31/11 92/31/11
f 90/31/11 92/31/11 93/31/11
f 93/31/11 92/31/11 94/31/11
f 97/32/12 96/32/12 95/32/12
f 96/32/12 97/32/12 98/32/12
f 98/32/12 97/32/12 99/32/12
f 98/32/12 99/32/12 100/32/12
f 99/32/13 90/31/14 93/31/13
f 90/31/14 99/32/13 97/32/14
f 96/32/15 92/31/15 91/31/15
f 92/31/15 96/32/15 98/32/15
f 95/32/16 90/31/14 97/32/14
f 90/31/14 95/32/16 89/31/16
f 94/31/17 99/32/13 93/31/13
f 99/32/13 94/31/17 100/32/17
f 96/32/18 89/31/16 95/32/16
f 89/31/16 96/32/18 91/31/18
f 92/31/19 100/32/17 94/31/17
f 100/32/17 92/31/19 98/32/19
f 103/33/12 102/33/12 101/33/12
f 102/33/12 103/33/12 104/33/12
f 103/33/22 106/34/21 105/34/20
f 106/34/21 103/33/22 101/33/23
f 101/33/23 107/35/24 106/34/21
f 107/35/24 101/33/23 102/33/25
f 102/33/25 108/35/26 107/35/24
f 108/35/26 102/33/25 104/33/27
f 108/35/26 103/33/22 105/34/20
f 103/33/22 108/35/26 104/33/27
f 108/35/28 106/34/28 107/35/28
f 106/34/28 108/35/28 105/34/28
f 111/37/8 110/36/7 109/36/7
f 110/36/7 111/37/8 112/37/8
f 115/36/3 114/38/2 113/38/2
f 114/38/2 115/36/3 116/36/3
f 116/36/3 112/37/8 111/37/8
f 112/37/8 116/36/3 115/36/3
f 113/38/2 118/39/4 117/39/4
f 118/39/4 113/38/2 114/38/2
f 115/36/29 110/36/29 112/37/29
f 110/36/29 115/36/29 113/38/29
f 110/36/29 113/38/29 119/38/29
f 119/38/29 113/38/29 117/39/29
f 119/38/29 117/39/29 120/39/29
f 120/39/29 117/39/29 121/33/29
f 122/39/6 119/38/9 120/39/6
f 119/38/9 122/39/6 123/38/9
f 123/38/9 110/36/7 119/38/9
f 110/36/7 123/38/9 109/36/7
f 121/33/5 118/39/4 124/33/5
f 118/39/4 121/33/5 117/39/4
f 120/39/6 124/33/5 122/39/6
f 124/33/5 120/39/6 121/33/5
f 127/33/11 126/33/11 125/33/11
f 126/33/11 127/33/11 128/33/11
f 131/35/12 130/35/12 129/35/12
f 130/35/12 131/35/12 132/35/12
f 131/35/32 126/33/31 128/33/30
f 126/33/31 131/35/32 129/35/31
f 130/35/33 126/33/31 129/35/31
f 126/33/31 130/35/33 125/33/34
f 130/35/33 127/33/35 125/33/34
f 127/33/35 130/35/33 132/35/35
f 128/33/30 132/35/35 131/35/32
f 132/35/35 128/33/30 127/33/35
f 135/33/11 134/33/11 133/33/11
f 134/33/11 135/33/11 136/33/11
f 139/35/12 138/35/12 137/35/12
f 138/35/12 139/35/12 140/35/12
f 139/35/36 134/33/37 136/33/36
f 134/33/37 139/35/36 137/35/38
f 138/35/39 134/33/37 137/35/38
f 134/33/37 138/35/39 133/33/39
f 138/35/39 135/33/40 133/33/39
f 135/33/40 138/35/39 140/35/41
f 136/33/36 140/35/41 139/35/36
f 140/35/41 136/33/36 135/33/40

