# Created by Kenney (www.kenney.nl)

mtllib building-structure.mtl

g building-structure

v 0.475 0.8 0.3500001 1 1 1
v 0.475 0.9 0.3500001 1 1 1
v 0.475 0.8 -0.3500001 1 1 1
v 0.475 0.9 -0.3500001 1 1 1
v 0.3749999 0.8 0.3500001 1 1 1
v 0.375 0.8 -0.3500001 1 1 1
v 0.3749999 0.9 0.3500001 1 1 1
v 0.375 0.9 -0.3500001 1 1 1
v -0.375 0.8 0.3500001 1 1 1
v -0.375 0.9 0.3500001 1 1 1
v -0.3749999 0.8 -0.3500001 1 1 1
v -0.3749999 0.9 -0.3500001 1 1 1
v -0.475 0.8 0.3500001 1 1 1
v -0.475 0.8 -0.3500001 1 1 1
v -0.475 0.9 0.3500001 1 1 1
v -0.475 0.9 -0.3500001 1 1 1
v -0.35 0.8 -0.375 1 1 1
v -0.35 0.9 -0.375 1 1 1
v 0.35 0.8 -0.375 1 1 1
v 0.35 0.9 -0.375 1 1 1
v -0.35 0.8 -0.475 1 1 1
v 0.35 0.8 -0.475 1 1 1
v -0.35 0.9 -0.475 1 1 1
v 0.35 0.9 -0.475 1 1 1
v -0.35 0.8 0.375 1 1 1
v -0.35 0.8 0.475 1 1 1
v 0.35 0.8 0.375 1 1 1
v 0.35 0.8 0.475 1 1 1
v -0.35 0.9 0.375 1 1 1
v 0.35 0.9 0.375 1 1 1
v -0.35 0.9 0.475 1 1 1
v 0.35 0.9 0.475 1 1 1
v -0.35 0.4928932 -0.45 1 1 1
v -0.04289324 0.8 -0.45 1 1 1
v -0.35 0.6343146 -0.45 1 1 1
v -0.1843146 0.8 -0.45 1 1 1
v -0.35 0.6343146 -0.4 1 1 1
v -0.1843146 0.8 -0.4 1 1 1
v -0.35 0.4928932 -0.4 1 1 1
v -0.04289324 0.8 -0.4 1 1 1
v 0.35 0.4928932 -0.45 1 1 1
v 0.04289323 0.8 -0.45 1 1 1
v 0.35 0.4928932 -0.4 1 1 1
v 0.04289323 0.8 -0.4 1 1 1
v 0.35 0.6343146 -0.45 1 1 1
v 0.1843146 0.8 -0.45 1 1 1
v 0.35 0.6343146 -0.4 1 1 1
v 0.1843146 0.8 -0.4 1 1 1
v 0.35 0.4928932 0.4 1 1 1
v 0.04289323 0.8 0.4 1 1 1
v 0.35 0.4928932 0.45 1 1 1
v 0.04289323 0.8 0.45 1 1 1
v 0.35 0.6343146 0.4 1 1 1
v 0.1843146 0.8 0.4 1 1 1
v 0.35 0.6343146 0.45 1 1 1
v 0.1843146 0.8 0.45 1 1 1
v -0.35 0.4928932 0.4 1 1 1
v -0.04289324 0.8 0.4 1 1 1
v -0.35 0.6343146 0.4 1 1 1
v -0.1843146 0.8 0.4 1 1 1
v -0.35 0.6343146 0.45 1 1 1
v -0.1843146 0.8 0.45 1 1 1
v -0.35 0.4928932 0.45 1 1 1
v -0.04289324 0.8 0.45 1 1 1
v 0.45 0.4928932 -0.35 1 1 1
v 0.45 0.8 -0.04289324 1 1 1
v 0.45 0.6343146 -0.35 1 1 1
v 0.45 0.8 -0.1843146 1 1 1
v 0.4 0.6343146 -0.35 1 1 1
v 0.4 0.8 -0.1843146 1 1 1
v 0.4 0.4928932 -0.35 1 1 1
v 0.4 0.8 -0.04289325 1 1 1
v -0.4 0.4928932 -0.35 1 1 1
v -0.4 0.8 -0.04289324 1 1 1
v -0.4 0.6343146 -0.35 1 1 1
v -0.4 0.8 -0.1843146 1 1 1
v -0.45 0.6343146 -0.35 1 1 1
v -0.45 0.8 -0.1843146 1 1 1
v -0.45 0.4928932 -0.35 1 1 1
v -0.45 0.8 -0.04289325 1 1 1
v 0.45 0.4928932 0.35 1 1 1
v 0.45 0.8 0.0428932 1 1 1
v 0.4 0.4928932 0.35 1 1 1
v 0.4 0.8 0.0428932 1 1 1
v 0.45 0.6343146 0.35 1 1 1
v 0.45 0.8 0.1843146 1 1 1
v 0.4 0.6343146 0.35 1 1 1
v 0.4 0.8 0.1843146 1 1 1
v 0.5 0 -0.35 1 1 1
v 0.5 0 -0.5 1 1 1
v 0.35 0 -0.35 1 1 1
v 0.35 0 -0.5 1 1 1
v 0.5 1 -0.5 1 1 1
v 0.5 1 -0.35 1 1 1
v 0.35 1 -0.5 1 1 1
v 0.35 1 -0.35 1 1 1
v 0.5 0 0.5 1 1 1
v 0.5 0 0.35 1 1 1
v 0.35 0 0.5 1 1 1
v 0.35 0 0.35 1 1 1
v 0.5 1 0.35 1 1 1
v 0.5 1 0.5 1 1 1
v 0.35 1 0.35 1 1 1
v 0.35 1 0.5 1 1 1
v -0.35 0 0.5 1 1 1
v -0.35 0 0.35 1 1 1
v -0.5 0 0.5 1 1 1
v -0.5 0 0.35 1 1 1
v -0.35 1 0.35 1 1 1
v -0.35 1 0.5 1 1 1
v -0.5 1 0.35 1 1 1
v -0.5 1 0.5 1 1 1
v -0.35 0 -0.35 1 1 1
v -0.35 0 -0.5 1 1 1
v -0.5 0 -0.35 1 1 1
v -0.5 0 -0.5 1 1 1
v -0.35 1 -0.5 1 1 1
v -0.35 1 -0.35 1 1 1
v -0.5 1 -0.5 1 1 1
v -0.5 1 -0.35 1 1 1
v -0.4 0.4928932 0.35 1 1 1
v -0.4 0.8 0.0428932 1 1 1
v -0.45 0.4928932 0.35 1 1 1
v -0.45 0.8 0.0428932 1 1 1
v -0.4 0.6343146 0.35 1 1 1
v -0.4 0.8 0.1843146 1 1 1
v -0.45 0.6343146 0.35 1 1 1
v -0.45 0.8 0.1843146 1 1 1

vn 1 0 1.192093E-07
vn 0 -1 0
vn -1 0 -1.192093E-07
vn 0 1 0
vn 1.28038E-12 0 1
vn -1.28038E-12 0 -1
vn 0 0 -1
vn -0.7071068 0.7071068 0
vn 0 0 1
vn 0.7071068 -0.7071068 0
vn -0.7071068 -0.7071068 0
vn 0.7071068 0.7071068 0
vn 8.429368E-08 0.7071068 -0.7071068
vn -8.429368E-08 -0.7071068 0.7071068
vn 8.429368E-08 -0.7071068 -0.7071068
vn -8.429368E-08 0.7071068 0.7071068
vn -1 0 0
vn 1 0 0

vt 0.03125 0.375
vt 0.09375 0.425
vt 0.09375 0.325
vt 0.09375 0.3789504
vt 0.96875 0.075
vt 0.96875 0.175
vt 0.96875 0.1289504
vt 0.96875 0.075

usemtl colormap

f 3/1/1 2/1/1 1/1/1
f 2/1/1 3/1/1 4/1/1
f 6/1/2 1/1/2 5/1/2
f 1/1/2 6/1/2 3/1/2
f 7/1/3 6/1/3 5/1/3
f 6/1/3 7/1/3 8/1/3
f 4/1/4 7/1/4 2/1/4
f 7/1/4 4/1/4 8/1/4
f 11/1/1 10/1/1 9/1/1
f 10/1/1 11/1/1 12/1/1
f 14/1/2 9/1/2 13/1/2
f 9/1/2 14/1/2 11/1/2
f 15/1/3 14/1/3 13/1/3
f 14/1/3 15/1/3 16/1/3
f 12/1/4 15/1/4 10/1/4
f 15/1/4 12/1/4 16/1/4
f 19/1/5 18/1/5 17/1/5
f 18/1/5 19/1/5 20/1/5
f 22/1/2 17/1/2 21/1/2
f 17/1/2 22/1/2 19/1/2
f 23/1/6 22/1/6 21/1/6
f 22/1/6 23/1/6 24/1/6
f 20/1/4 23/1/4 18/1/4
f 23/1/4 20/1/4 24/1/4
f 27/1/2 26/1/2 25/1/2
f 26/1/2 27/1/2 28/1/2
f 29/1/6 27/1/6 25/1/6
f 27/1/6 29/1/6 30/1/6
f 28/1/5 31/1/5 26/1/5
f 31/1/5 28/1/5 32/1/5
f 31/1/4 30/1/4 29/1/4
f 30/1/4 31/1/4 32/1/4
f 35/4/7 34/3/7 33/2/7
f 34/3/7 35/4/7 36/3/7
f 37/4/8 36/3/8 35/4/8
f 36/3/8 37/4/8 38/3/8
f 40/3/9 37/4/9 39/2/9
f 37/4/9 40/3/9 38/3/9
f 34/3/10 39/2/10 33/2/10
f 39/2/10 34/3/10 40/3/10
f 43/2/11 42/3/11 41/2/11
f 42/3/11 43/2/11 44/3/11
f 42/3/7 45/4/7 41/2/7
f 45/4/7 42/3/7 46/3/7
f 47/4/9 44/3/9 43/2/9
f 44/3/9 47/4/9 48/3/9
f 46/3/12 47/4/12 45/4/12
f 47/4/12 46/3/12 48/3/12
f 51/2/11 50/3/11 49/2/11
f 50/3/11 51/2/11 52/3/11
f 50/3/7 53/4/7 49/2/7
f 53/4/7 50/3/7 54/3/7
f 55/4/9 52/3/9 51/2/9
f 52/3/9 55/4/9 56/3/9
f 54/3/12 55/4/12 53/4/12
f 55/4/12 54/3/12 56/3/12
f 59/4/7 58/3/7 57/2/7
f 58/3/7 59/4/7 60/3/7
f 61/4/8 60/3/8 59/4/8
f 60/3/8 61/4/8 62/3/8
f 64/3/9 61/4/9 63/2/9
f 61/4/9 64/3/9 62/3/9
f 58/3/10 63/2/10 57/2/10
f 63/2/10 58/3/10 64/3/10
f 67/4/1 66/3/1 65/2/1
f 66/3/1 67/4/1 68/3/1
f 69/4/13 68/3/13 67/4/13
f 68/3/13 69/4/13 70/3/13
f 72/3/3 69/4/3 71/2/3
f 69/4/3 72/3/3 70/3/3
f 66/3/14 71/2/14 65/2/14
f 71/2/14 66/3/14 72/3/14
f 75/4/1 74/3/1 73/2/1
f 74/3/1 75/4/1 76/3/1
f 77/4/13 76/3/13 75/4/13
f 76/3/13 77/4/13 78/3/13
f 80/3/3 77/4/3 79/2/3
f 77/4/3 80/3/3 78/3/3
f 74/3/14 79/2/14 73/2/14
f 79/2/14 74/3/14 80/3/14
f 83/2/15 82/3/15 81/2/15
f 82/3/15 83/2/15 84/3/15
f 82/3/1 85/4/1 81/2/1
f 85/4/1 82/3/1 86/3/1
f 87/4/3 84/3/3 83/2/3
f 84/3/3 87/4/3 88/3/3
f 86/3/16 87/4/16 85/4/16
f 87/4/16 86/3/16 88/3/16
f 91/5/2 90/5/2 89/5/2
f 90/5/2 91/5/2 92/5/2
f 95/6/4 94/6/4 93/6/4
f 94/6/4 95/6/4 96/6/4
f 91/5/17 95/6/17 92/5/17
f 95/6/17 91/5/17 96/6/17
f 95/6/7 90/5/7 92/5/7
f 90/5/7 95/6/7 93/6/7
f 94/6/18 90/5/18 93/6/18
f 90/5/18 94/6/18 89/5/18
f 94/6/9 91/5/9 89/5/9
f 91/5/9 94/6/9 96/6/9
f 99/5/2 98/5/2 97/5/2
f 98/5/2 99/5/2 100/5/2
f 103/6/4 102/6/4 101/6/4
f 102/6/4 103/6/4 104/6/4
f 99/5/17 103/6/17 100/5/17
f 103/6/17 99/5/17 104/6/17
f 103/6/7 98/5/7 100/5/7
f 98/5/7 103/6/7 101/6/7
f 102/6/18 98/5/18 101/6/18
f 98/5/18 102/6/18 97/5/18
f 102/6/9 99/5/9 97/5/9
f 99/5/9 102/6/9 104/6/9
f 107/5/2 106/5/2 105/5/2
f 106/5/2 107/5/2 108/5/2
f 111/6/4 110/6/4 109/6/4
f 110/6/4 111/6/4 112/6/4
f 107/5/17 111/6/17 108/5/17
f 111/6/17 107/5/17 112/6/17
f 111/6/7 106/5/7 108/5/7
f 106/5/7 111/6/7 109/6/7
f 110/6/18 106/5/18 109/6/18
f 106/5/18 110/6/18 105/5/18
f 110/6/9 107/5/9 105/5/9
f 107/5/9 110/6/9 112/6/9
f 115/5/2 114/5/2 113/5/2
f 114/5/2 115/5/2 116/5/2
f 119/6/4 118/6/4 117/6/4
f 118/6/4 119/6/4 120/6/4
f 115/5/17 119/6/17 116/5/17
f 119/6/17 115/5/17 120/6/17
f 119/6/7 114/5/7 116/5/7
f 114/5/7 119/6/7 117/6/7
f 118/6/18 114/5/18 117/6/18
f 114/5/18 118/6/18 113/5/18
f 118/6/9 115/5/9 113/5/9
f 115/5/9 118/6/9 120/6/9
f 123/6/15 122/5/15 121/6/15
f 122/5/15 123/6/15 124/5/15
f 122/5/1 125/7/1 121/6/1
f 125/7/1 122/5/1 126/8/1
f 127/7/3 124/5/3 123/6/3
f 124/5/3 127/7/3 128/8/3
f 126/8/16 127/7/16 125/7/16
f 127/7/16 126/8/16 128/8/16

g building-structure




usemtl colormap

f 3/1/1 2/1/1 1/1/1
f 2/1/1 3/1/1 4/1/1
f 6/1/2 1/1/2 5/1/2
f 1/1/2 6/1/2 3/1/2
f 7/1/3 6/1/3 5/1/3
f 6/1/3 7/1/3 8/1/3
f 4/1/4 7/1/4 2/1/4
f 7/1/4 4/1/4 8/1/4
f 11/1/1 10/1/1 9/1/1
f 10/1/1 11/1/1 12/1/1
f 14/1/2 9/1/2 13/1/2
f 9/1/2 14/1/2 11/1/2
f 15/1/3 14/1/3 13/1/3
f 14/1/3 15/1/3 16/1/3
f 12/1/4 15/1/4 10/1/4
f 15/1/4 12/1/4 16/1/4
f 19/1/5 18/1/5 17/1/5
f 18/1/5 19/1/5 20/1/5
f 22/1/2 17/1/2 21/1/2
f 17/1/2 22/1/2 19/1/2
f 23/1/6 22/1/6 21/1/6
f 22/1/6 23/1/6 24/1/6
f 20/1/4 23/1/4 18/1/4
f 23/1/4 20/1/4 24/1/4
f 27/1/2 26/1/2 25/1/2
f 26/1/2 27/1/2 28/1/2
f 29/1/6 27/1/6 25/1/6
f 27/1/6 29/1/6 30/1/6
f 28/1/5 31/1/5 26/1/5
f 31/1/5 28/1/5 32/1/5
f 31/1/4 30/1/4 29/1/4
f 30/1/4 31/1/4 32/1/4
f 35/4/7 34/3/7 33/2/7
f 34/3/7 35/4/7 36/3/7
f 37/4/8 36/3/8 35/4/8
f 36/3/8 37/4/8 38/3/8
f 40/3/9 37/4/9 39/2/9
f 37/4/9 40/3/9 38/3/9
f 34/3/10 39/2/10 33/2/10
f 39/2/10 34/3/10 40/3/10
f 43/2/11 42/3/11 41/2/11
f 42/3/11 43/2/11 44/3/11
f 42/3/7 45/4/7 41/2/7
f 45/4/7 42/3/7 46/3/7
f 47/4/9 44/3/9 43/2/9
f 44/3/9 47/4/9 48/3/9
f 46/3/12 47/4/12 45/4/12
f 47/4/12 46/3/12 48/3/12
f 51/2/11 50/3/11 49/2/11
f 50/3/11 51/2/11 52/3/11
f 50/3/7 53/4/7 49/2/7
f 53/4/7 50/3/7 54/3/7
f 55/4/9 52/3/9 51/2/9
f 52/3/9 55/4/9 56/3/9
f 54/3/12 55/4/12 53/4/12
f 55/4/12 54/3/12 56/3/12
f 59/4/7 58/3/7 57/2/7
f 58/3/7 59/4/7 60/3/7
f 61/4/8 60/3/8 59/4/8
f 60/3/8 61/4/8 62/3/8
f 64/3/9 61/4/9 63/2/9
f 61/4/9 64/3/9 62/3/9
f 58/3/10 63/2/10 57/2/10
f 63/2/10 58/3/10 64/3/10
f 67/4/1 66/3/1 65/2/1
f 66/3/1 67/4/1 68/3/1
f 69/4/13 68/3/13 67/4/13
f 68/3/13 69/4/13 70/3/13
f 72/3/3 69/4/3 71/2/3
f 69/4/3 72/3/3 70/3/3
f 66/3/14 71/2/14 65/2/14
f 71/2/14 66/3/14 72/3/14
f 75/4/1 74/3/1 73/2/1
f 74/3/1 75/4/1 76/3/1
f 77/4/13 76/3/13 75/4/13
f 76/3/13 77/4/13 78/3/13
f 80/3/3 77/4/3 79/2/3
f 77/4/3 80/3/3 78/3/3
f 74/3/14 79/2/14 73/2/14
f 79/2/14 74/3/14 80/3/14
f 83/2/15 82/3/15 81/2/15
f 82/3/15 83/2/15 84/3/15
f 82/3/1 85/4/1 81/2/1
f 85/4/1 82/3/1 86/3/1
f 87/4/3 84/3/3 83/2/3
f 84/3/3 87/4/3 88/3/3
f 86/3/16 87/4/16 85/4/16
f 87/4/16 86/3/16 88/3/16
f 91/5/2 90/5/2 89/5/2
f 90/5/2 91/5/2 92/5/2
f 95/6/4 94/6/4 93/6/4
f 94/6/4 95/6/4 96/6/4
f 91/5/17 95/6/17 92/5/17
f 95/6/17 91/5/17 96/6/17
f 95/6/7 90/5/7 92/5/7
f 90/5/7 95/6/7 93/6/7
f 94/6/18 90/5/18 93/6/18
f 90/5/18 94/6/18 89/5/18
f 94/6/9 91/5/9 89/5/9
f 91/5/9 94/6/9 96/6/9
f 99/5/2 98/5/2 97/5/2
f 98/5/2 99/5/2 100/5/2
f 103/6/4 102/6/4 101/6/4
f 102/6/4 103/6/4 104/6/4
f 99/5/17 103/6/17 100/5/17
f 103/6/17 99/5/17 104/6/17
f 103/6/7 98/5/7 100/5/7
f 98/5/7 103/6/7 101/6/7
f 102/6/18 98/5/18 101/6/18
f 98/5/18 102/6/18 97/5/18
f 102/6/9 99/5/9 97/5/9
f 99/5/9 102/6/9 104/6/9
f 107/5/2 106/5/2 105/5/2
f 106/5/2 107/5/2 108/5/2
f 111/6/4 110/6/4 109/6/4
f 110/6/4 111/6/4 112/6/4
f 107/5/17 111/6/17 108/5/17
f 111/6/17 107/5/17 112/6/17
f 111/6/7 106/5/7 108/5/7
f 106/5/7 111/6/7 109/6/7
f 110/6/18 106/5/18 109/6/18
f 106/5/18 110/6/18 105/5/18
f 110/6/9 107/5/9 105/5/9
f 107/5/9 110/6/9 112/6/9
f 115/5/2 114/5/2 113/5/2
f 114/5/2 115/5/2 116/5/2
f 119/6/4 118/6/4 117/6/4
f 118/6/4 119/6/4 120/6/4
f 115/5/17 119/6/17 116/5/17
f 119/6/17 115/5/17 120/6/17
f 119/6/7 114/5/7 116/5/7
f 114/5/7 119/6/7 117/6/7
f 118/6/18 114/5/18 117/6/18
f 114/5/18 118/6/18 113/5/18
f 118/6/9 115/5/9 113/5/9
f 115/5/9 118/6/9 120/6/9
f 123/6/15 122/5/15 121/6/15
f 122/5/15 123/6/15 124/5/15
f 122/5/1 125/7/1 121/6/1
f 125/7/1 122/5/1 126/8/1
f 127/7/3 124/5/3 123/6/3
f 124/5/3 127/7/3 128/8/3
f 126/8/16 127/7/16 125/7/16
f 127/7/16 126/8/16 128/8/16

