# Created by Kenney (www.kenney.nl)

mtllib plant.mtl

g plant

v -0.1340606 0.1313105 -0.1085084 1 1 1
v -0.1478376 0.1095901 -0.1457535 1 1 1
v -0.1285161 0.1749435 -0.09791189 1 1 1
v -0.04799154 0.1725382 -0.194709 1 1 1
v -0.05230748 0.1095901 -0.2009079 1 1 1
v -0.02415411 0.1485206 -0.1665208 1 1 1
v -0.05555393 0.09893504 -0.05008034 1 1 1
v -0.09217453 0.12871 -0.003650978 1 1 1
v -0.1160141 0.1637847 -0.1086586 1 1 1
v -0.03053373 0.1050703 -0.1765773 1 1 1
v -0.08201741 0.005223099 -0.03174968 1 1 1
v -0.1181016 0.05820575 -0.04855794 1 1 1
v -0.05806554 0.04069348 0.011696 1 1 1
v -0.03758806 0.09345787 -0.06510445 1 1 1
v -0.009749994 0.002966782 -0.0168875 1 1 1
v 0.0169984 0.05820575 -0.1265579 1 1 1
v -0.027423 -0.01697657 -0.04749805 1 1 1
v 0.03916182 0.04069348 -0.04443824 1 1 1
v 0.01351269 0.005223099 -0.086904 1 1 1
v 0.04292544 0.12871 -0.08165097 1 1 1
v -0.1225628 0.1159516 -0.2122851 1 1 1
v -0.1242624 0.162962 -0.2152288 1 1 1
v -0.01559386 0.09893504 -0.07315131 1 1 1
v -0.02053608 0.1749435 -0.1602542 1 1 1
v -0.1446272 0.1725382 -0.1389164 1 1 1
v -0.03609398 0.1637847 -0.1548005 1 1 1
v -0.07796003 0.1498651 -0.1350308 1 1 1
v -0.1376536 0.1050703 -0.1147317 1 1 1
v 0.2001451 0.08762396 -0.05515433 1 1 1
v 0.1926188 0.1396472 -0.05579262 1 1 1
v 0.1490522 0.1416351 -0.06234232 1 1 1
v 0.1610014 0.1055747 -0.06184568 1 1 1
v 0.2001451 0.08762396 0.05515433 1 1 1
v 0.1681873 0.08388863 0.06184567 1 1 1
v 0.1562883 0.119798 0.06234231 1 1 1
v 0.1521081 0.1324129 -0.04614192 1 1 1
v 0.04924911 0.1034255 -0.078 1 1 1
v 0.1521081 0.1324129 0.04614192 1 1 1
v 0.1490522 0.1416351 0.06234231 1 1 1
v 0.07114783 0.07881814 0.02307095 1 1 1
v 0.07114783 0.07881814 -0.02307096 1 1 1
v 0.1926188 0.1396472 0.05579261 1 1 1
v 0.04924911 0.1034255 0.078 1 1 1
v 0.1011032 0.04515757 0.078 1 1 1
v 0.01950003 -0.0004944615 0 1 1 1
v 0.05484602 -0.01697657 0 1 1 1
v 0.01890375 0.03068463 -0.05613425 1 1 1
v 0.06850475 0.001370262 0.05515433 1 1 1
v 0.01890375 0.03068463 0.05613425 1 1 1
v 0.06850475 0.001370262 -0.05515433 1 1 1
v 0.1011032 0.04515757 -0.078 1 1 1
v 0.07517615 0.07429156 0 1 1 1
v 0.2485248 0.131733 0 1 1 1
v 0.2451257 0.09288143 0 1 1 1
v 0.1559201 0.1209091 0 1 1 1
v 0.1681873 0.08388863 -0.06184568 1 1 1
v -0.1181016 0.03770148 0.04855791 1 1 1
v -0.1321342 0.103385 0.1041785 1 1 1
v -0.1376536 0.07178481 0.1147317 1 1 1
v -0.09217453 0.08897728 0.003650966 1 1 1
v -0.009749994 -0.002472315 0.01688749 1 1 1
v -0.05555393 0.06732278 0.05008033 1 1 1
v 0.03916182 0.02496528 0.04443824 1 1 1
v 0.04292544 0.08897728 0.08165096 1 1 1
v -0.02053608 0.1226017 0.1602542 1 1 1
v -0.02694074 0.09086856 0.1703541 1 1 1
v -0.027423 -0.01697657 0.04749803 1 1 1
v 0.01351269 -0.0008313563 0.08690399 1 1 1
v -0.05806554 0.02496528 -0.01169601 1 1 1
v 0.0169984 0.03770148 0.1265579 1 1 1
v -0.1478376 0.0750719 0.1457535 1 1 1
v -0.1446272 0.1208524 0.1389164 1 1 1
v -0.1225628 0.07969847 0.212285 1 1 1
v -0.1285161 0.1226017 0.09791187 1 1 1
v -0.03758806 0.06333938 0.06510444 1 1 1
v -0.08201741 -0.0008313563 0.03174966 1 1 1
v -0.01559386 0.06732278 0.07315129 1 1 1
v -0.1160141 0.1144862 0.1086585 1 1 1
v -0.1242624 0.1138879 0.2152287 1 1 1
v -0.05230748 0.0750719 0.2009078 1 1 1
v -0.04799154 0.1208524 0.194709 1 1 1
v -0.03609398 0.1144862 0.1548004 1 1 1
v -0.03053373 0.07178481 0.1765773 1 1 1
v -0.07796003 0.1043628 0.1350308 1 1 1

vn -0.939729 0.04986786 0.3382641
vn -0.9991391 0.03753485 0.01766439
vn -0.9317366 0.02432701 0.3623192
vn 0.553423 0.03070785 -0.832334
vn 0.4868042 0.05983689 -0.8714593
vn 0.7730165 0.04216056 -0.6329834
vn 0.690141 0.6420377 0.3339055
vn 0.7499325 0.6089031 0.2585309
vn 0.539463 0.8415548 0.02766504
vn 0.7466231 0.04401043 -0.66379
vn 0.6345612 0.7704029 -0.06173628
vn -0.4745821 -0.5353355 0.6987042
vn -0.8494196 -0.06012893 0.5242812
vn -0.5306603 -0.4679591 0.7066923
vn 0.5927507 0.6536505 0.4705186
vn 0.7290154 0.4547063 0.5116432
vn 0.8998613 -0.06926097 -0.4306419
vn 0.2340948 -0.858635 0.4560105
vn 0.8799818 -0.4482896 -0.1570622
vn 0.8669375 -0.4915135 -0.08266852
vn 0.2312658 -0.8587376 0.4572592
vn 0.8820567 -0.05927622 -0.4673994
vn -0.4646922 -0.03788289 -0.8846616
vn -0.4683475 -0.03670487 -0.8827816
vn 0.07858831 0.4547063 0.8871674
vn 0.1111057 0.6536504 0.7485964
vn -0.05611099 0.6415991 0.7649851
vn 0.6702602 0.3717414 0.642308
vn 0.221125 0.3717414 0.9016163
vn -0.1498035 0.6086607 0.7791605
vn 0.7846138 0.03930782 -0.6187375
vn 0.3605873 0.9299457 -0.07195707
vn -0.9946625 0.04041658 0.09493703
vn -0.8473959 -0.03727013 0.5296519
vn -0.3702486 0.7731578 0.5149204
vn -0.2483368 0.8417127 0.4794255
vn -0.2426103 0.9299457 0.2762992
vn 0.4346865 0.8863629 0.1593997
vn -0.07929903 0.886363 0.4561494
vn -0.2004149 -0.9161527 -0.3471288
vn -0.07001757 -0.9901466 -0.121274
vn 0.3235033 0.9456742 -0.03233876
vn -0.4258516 -0.5240245 -0.7375966
vn -0.3610205 -0.6918501 -0.625306
vn -0.9464473 0.05410657 0.3182926
vn -0.1897579 0.9456742 0.2639927
vn 0.4841135 0.04540232 -0.8738264
vn 0.4149561 0.04888553 -0.9085272
vn 0.1520698 0.02943163 -0.9879314
vn 0.1768172 0.06030532 -0.9823945
vn 0.5108795 0.07234253 0.8566029
vn 0.2014569 0.05322869 0.9780501
vn 0.1616048 0.05099326 0.9855372
vn -0.2335974 0.8254126 0.5139322
vn -0.2547878 0.8833995 0.3933045
vn -0.5531575 0.6805446 0.4804955
vn -0.2524651 0.8835242 -0.3945203
vn -0.2307576 0.827724 -0.5114918
vn -0.5813356 0.7113523 -0.3950023
vn -0.5810888 0.7117606 0.3946299
vn 0.4440138 0.03714837 0.8952496
vn -0.03621903 -0.07166582 0.9967709
vn 0.143484 0.04754542 0.98851
vn -0.07689828 -0.08371264 0.9935184
vn -0.5541232 0.6803134 -0.4797095
vn -0.4416127 -0.8968721 -0.02446814
vn -0.4419137 -0.8967924 -0.02181515
vn -0.3303047 -0.5394797 -0.7745065
vn -0.3431497 -0.5639557 0.751134
vn -0.2907161 -0.5187772 0.8039617
vn -0.7714392 0.5255569 -0.3587083
vn -0.3455425 -0.6085493 -0.7143306
vn -0.02930653 -0.07269504 -0.9969235
vn -0.6429881 0.7225199 0.2540301
vn -0.7714392 0.5255569 0.3587083
vn -0.6429881 0.7225199 -0.2540301
vn -0.8641062 0.4360417 0.2513727
vn 0.9983729 -0.044399 0.03577876
vn 0.998153 -0.04582303 0.03988224
vn -0.8641062 0.4360417 -0.2513727
vn -0.03498277 -0.04508232 -0.9983706
vn -0.09966062 0.9505372 -0.2941882
vn -0.09966062 0.9505372 0.2941882
vn -0.1124331 0.9619265 0.2491109
vn -0.3042265 0.918104 0.2540301
vn 0.3400361 -0.9404123 0
vn 0.6531315 -0.7572445 0
vn -0.1124331 0.9619265 -0.2491109
vn -0.3042265 0.918104 -0.2540301
vn 0.1160929 -0.9932383 0
vn 0.8021231 -0.5971586 0
vn 0.1974401 0.06542452 -0.9781293
vn -0.8211253 -0.09503105 -0.562781
vn -0.933949 0.05792495 -0.3526812
vn -0.9473537 0.0604622 -0.3144285
vn 0.650063 0.7257059 -0.22532
vn 0.6699378 0.5745548 -0.4701809
vn 0.5907063 0.7546433 -0.2856212
vn 0.07221971 0.5745549 -0.8152736
vn 0.208657 0.482324 -0.8507795
vn -0.1309856 0.7259231 -0.6751876
vn 0.7794405 0.03344082 0.6255831
vn 0.8818446 -0.05121475 0.4687506
vn 0.7619665 0.06849249 0.6439844
vn 0.8025638 -0.5886003 0.09716561
vn 0.2178174 -0.9173426 -0.333224
vn 0.2158885 -0.9172764 -0.3346582
vn 0.7518796 -0.6570002 0.05502457
vn 0.6324682 0.482324 -0.6060921
vn 0.8773393 -0.0825445 0.4727179
vn -0.9965203 0.08214483 0.01412238
vn -0.9971153 0.04220556 -0.06308493
vn -0.5334525 -0.05205572 0.8442267
vn -0.9275113 0.05401111 -0.3698724
vn 0.5044865 0.7649371 -0.4004555
vn -0.5304896 -0.5676852 -0.6295351
vn -0.4581707 -0.6130854 -0.6435882
vn -0.8444879 -0.08137757 -0.5293561
vn 0.09456142 0.764937 -0.6371258
vn -0.04780859 0.7550207 -0.6539558
vn 0.5097823 0.858788 0.05104174
vn 0.4223334 0.906235 -0.01929899
vn 0.2710178 0.9610538 0.05408302
vn -0.5300196 -0.05043893 0.8464839
vn 0.5145446 0.05157806 0.8559109
vn 0.579128 0.05553241 0.8133431
vn -0.1924597 0.9061309 -0.3766778
vn -0.299867 0.8567874 -0.4195176
vn -0.1823462 0.9610538 -0.2076668
vn 0.7478986 0.07429974 0.6596416
vn -0.3817237 -0.64587 0.6611649
vn -0.3022915 -0.7965421 0.5235844
vn 0.3334178 0.9348176 -0.1222645
vn 0.2413609 0.9701354 0.02412745
vn -0.1516063 -0.9529229 0.2625898
vn -0.0511587 -0.9947518 0.08860949
vn -0.06082477 0.9348176 -0.3498805
vn -0.1415754 0.9701354 -0.1969609

vt 0.21875 0.17953
vt 0.21875 0.1568952
vt 0.21875 0.225
vt 0.21875 0.2224934
vt 0.21875 0.1974647
vt 0.21875 0.1457915
vt 0.21875 0.17682
vt 0.21875 0.2133715
vt 0.21875 0.1521851
vt 0.21875 0.04813429
vt 0.21875 0.1033475
vt 0.21875 0.08509798
vt 0.21875 0.1400838
vt 0.21875 0.04578298
vt 0.21875 0.025
vt 0.21875 0.1635245
vt 0.21875 0.2125141
vt 0.21875 0.1988657

usemtl colormap

f 3/3/3 2/2/2 1/1/1
f 6/5/6 5/2/5 4/4/4
f 9/8/9 8/7/8 7/6/7
f 6/5/6 10/9/10 5/2/5
f 3/3/11 8/7/8 9/8/9
f 13/12/14 12/11/13 11/10/12
f 15/14/16 14/13/15 7/6/7
f 16/11/17 10/9/10 6/5/6
f 11/10/12 17/15/18 13/12/14
f 15/14/21 19/10/20 18/12/19
f 20/7/22 19/10/20 16/11/17
f 2/2/2 22/17/24 21/16/23
f 23/6/27 14/13/26 15/14/25
f 13/12/28 15/14/16 8/7/8
f 20/7/30 15/14/25 18/12/29
f 4/4/4 21/16/23 22/17/24
f 24/3/31 6/5/6 4/4/4
f 25/4/32 3/3/11 9/8/9
f 25/4/33 22/17/24 2/2/2
f 8/7/34 1/1/1 12/11/13
f 20/7/22 16/11/17 6/5/6
f 24/3/35 23/6/27 20/7/30
f 20/7/22 6/5/6 24/3/31
f 17/15/18 19/10/20 15/14/21
f 26/8/36 23/6/27 24/3/35
f 3/3/3 25/4/33 2/2/2
f 8/7/8 15/14/16 7/6/7
f 8/7/34 3/3/3 1/1/1
f 4/4/4 5/2/5 21/16/23
f 13/12/14 8/7/34 12/11/13
f 4/4/37 26/8/36 24/3/35
f 13/12/14 17/15/18 15/14/21
f 18/12/19 19/10/20 20/7/22
f 20/7/30 23/6/27 15/14/25
f 27/18/38 7/6/7 14/13/15
f 7/6/7 27/18/38 9/8/9
f 26/8/36 14/13/26 23/6/27
f 14/13/26 26/8/36 27/18/39
f 28/9/40 5/2/41 10/9/40
f 5/2/41 28/9/40 21/16/41
f 21/16/41 28/9/40 2/2/41
f 22/17/42 9/8/9 27/18/38
f 9/8/9 22/17/42 25/4/32
f 11/10/43 19/10/43 17/15/43
f 19/10/43 11/10/43 12/11/44
f 19/10/43 12/11/44 16/11/44
f 28/9/45 1/1/1 2/2/2
f 1/1/1 28/9/45 12/11/13
f 12/11/44 10/9/40 16/11/44
f 10/9/40 12/11/44 28/9/40
f 4/4/37 27/18/39 26/8/36
f 27/18/39 4/4/37 22/17/46
f 31/3/49 30/4/48 29/2/47
f 31/3/49 29/2/47 32/1/50
f 35/5/53 34/9/52 33/2/51
f 37/7/56 36/8/55 31/3/54
f 40/6/59 39/3/58 38/8/57
f 37/7/56 41/6/60 36/8/55
f 42/4/61 35/5/53 33/2/51
f 39/3/63 43/7/62 35/5/53
f 35/5/53 43/7/62 44/11/64
f 43/7/65 39/3/58 40/6/59
f 47/12/68 46/15/67 45/14/66
f 43/7/62 49/12/70 48/10/69
f 43/7/65 40/6/59 45/14/71
f 51/11/73 50/10/72 47/12/68
f 45/14/75 52/13/74 41/6/60
f 40/6/59 52/13/76 45/14/71
f 45/14/75 37/7/56 47/12/77
f 54/16/79 29/2/47 53/17/78
f 35/5/53 44/11/64 34/9/52
f 47/12/68 50/10/72 46/15/67
f 49/12/70 45/14/66 48/10/69
f 43/7/65 45/14/71 49/12/80
f 42/4/61 54/16/79 53/17/78
f 43/7/62 48/10/69 44/11/64
f 31/3/49 32/1/50 37/7/81
f 37/7/81 51/11/73 47/12/68
f 45/14/66 46/15/67 48/10/69
f 39/3/58 42/4/82 38/8/57
f 31/3/54 36/8/55 30/4/83
f 53/17/78 29/2/47 30/4/48
f 42/4/61 33/2/51 54/16/79
f 39/3/63 35/5/53 42/4/61
f 32/1/50 51/11/73 37/7/81
f 45/14/75 41/6/60 37/7/56
f 30/4/83 55/18/85 53/17/84
f 55/18/85 30/4/83 36/8/55
f 34/9/86 51/11/87 56/9/86
f 51/11/87 34/9/86 44/11/87
f 55/18/89 42/4/82 53/17/88
f 42/4/82 55/18/89 38/8/57
f 36/8/55 52/13/74 55/18/85
f 52/13/74 36/8/55 41/6/60
f 33/2/90 29/2/90 54/16/90
f 29/2/90 33/2/90 56/9/86
f 56/9/86 33/2/90 34/9/86
f 52/13/76 38/8/57 55/18/89
f 38/8/57 52/13/76 40/6/59
f 44/11/87 50/10/91 51/11/87
f 50/10/91 44/11/87 46/15/91
f 46/15/91 44/11/87 48/10/91
f 32/1/50 56/9/92 51/11/73
f 56/9/92 32/1/50 29/2/47
f 59/9/95 58/5/94 57/11/93
f 62/6/98 61/14/97 60/7/96
f 64/7/101 63/12/100 61/14/99
f 66/1/104 64/7/103 65/3/102
f 67/15/107 61/14/106 63/12/105
f 67/15/107 63/12/105 68/10/108
f 61/14/97 69/12/109 60/7/96
f 70/11/110 63/12/105 64/7/103
f 73/16/113 72/4/112 71/2/111
f 72/4/112 74/3/114 58/5/94
f 75/13/115 61/14/97 62/6/98
f 70/11/110 68/10/108 63/12/105
f 76/10/117 69/12/116 61/14/106
f 60/7/118 76/10/117 57/11/93
f 77/6/120 61/14/99 75/13/119
f 72/4/123 78/8/122 74/3/121
f 79/17/124 72/4/112 73/16/113
f 79/17/124 73/16/113 80/2/125
f 76/10/117 60/7/118 69/12/116
f 81/4/126 79/17/124 80/2/125
f 76/10/117 61/14/106 67/15/107
f 64/7/101 61/14/99 77/6/120
f 81/4/129 65/3/128 82/8/127
f 82/8/127 64/7/101 77/6/120
f 58/5/94 74/3/114 60/7/118
f 74/3/121 62/6/98 60/7/96
f 58/5/94 60/7/118 57/11/93
f 71/2/111 58/5/94 59/9/95
f 80/2/125 66/1/104 65/3/102
f 82/8/127 65/3/128 64/7/101
f 74/3/121 78/8/122 62/6/98
f 66/1/104 70/11/110 64/7/103
f 71/2/111 72/4/112 58/5/94
f 80/2/125 65/3/102 81/4/126
f 66/1/104 83/9/130 70/11/110
f 83/9/130 66/1/104 80/2/125
f 68/10/131 76/10/131 67/15/131
f 76/10/131 68/10/131 70/11/132
f 76/10/131 70/11/132 57/11/132
f 78/8/122 79/17/134 84/18/133
f 79/17/134 78/8/122 72/4/123
f 83/9/135 57/11/132 70/11/132
f 57/11/132 83/9/135 59/9/135
f 80/2/136 59/9/135 83/9/135
f 59/9/135 80/2/136 73/16/136
f 59/9/135 73/16/136 71/2/136
f 84/18/137 81/4/129 82/8/127
f 81/4/129 84/18/137 79/17/138
f 62/6/98 84/18/133 75/13/115
f 84/18/133 62/6/98 78/8/122
f 75/13/119 82/8/127 77/6/120
f 82/8/127 75/13/119 84/18/137

g plant




usemtl colormap

f 3/3/3 2/2/2 1/1/1
f 6/5/6 5/2/5 4/4/4
f 9/8/9 8/7/8 7/6/7
f 6/5/6 10/9/10 5/2/5
f 3/3/11 8/7/8 9/8/9
f 13/12/14 12/11/13 11/10/12
f 15/14/16 14/13/15 7/6/7
f 16/11/17 10/9/10 6/5/6
f 11/10/12 17/15/18 13/12/14
f 15/14/21 19/10/20 18/12/19
f 20/7/22 19/10/20 16/11/17
f 2/2/2 22/17/24 21/16/23
f 23/6/27 14/13/26 15/14/25
f 13/12/28 15/14/16 8/7/8
f 20/7/30 15/14/25 18/12/29
f 4/4/4 21/16/23 22/17/24
f 24/3/31 6/5/6 4/4/4
f 25/4/32 3/3/11 9/8/9
f 25/4/33 22/17/24 2/2/2
f 8/7/34 1/1/1 12/11/13
f 20/7/22 16/11/17 6/5/6
f 24/3/35 23/6/27 20/7/30
f 20/7/22 6/5/6 24/3/31
f 17/15/18 19/10/20 15/14/21
f 26/8/36 23/6/27 24/3/35
f 3/3/3 25/4/33 2/2/2
f 8/7/8 15/14/16 7/6/7
f 8/7/34 3/3/3 1/1/1
f 4/4/4 5/2/5 21/16/23
f 13/12/14 8/7/34 12/11/13
f 4/4/37 26/8/36 24/3/35
f 13/12/14 17/15/18 15/14/21
f 18/12/19 19/10/20 20/7/22
f 20/7/30 23/6/27 15/14/25
f 27/18/38 7/6/7 14/13/15
f 7/6/7 27/18/38 9/8/9
f 26/8/36 14/13/26 23/6/27
f 14/13/26 26/8/36 27/18/39
f 28/9/40 5/2/41 10/9/40
f 5/2/41 28/9/40 21/16/41
f 21/16/41 28/9/40 2/2/41
f 22/17/42 9/8/9 27/18/38
f 9/8/9 22/17/42 25/4/32
f 11/10/43 19/10/43 17/15/43
f 19/10/43 11/10/43 12/11/44
f 19/10/43 12/11/44 16/11/44
f 28/9/45 1/1/1 2/2/2
f 1/1/1 28/9/45 12/11/13
f 12/11/44 10/9/40 16/11/44
f 10/9/40 12/11/44 28/9/40
f 4/4/37 27/18/39 26/8/36
f 27/18/39 4/4/37 22/17/46
f 31/3/49 30/4/48 29/2/47
f 31/3/49 29/2/47 32/1/50
f 35/5/53 34/9/52 33/2/51
f 37/7/56 36/8/55 31/3/54
f 40/6/59 39/3/58 38/8/57
f 37/7/56 41/6/60 36/8/55
f 42/4/61 35/5/53 33/2/51
f 39/3/63 43/7/62 35/5/53
f 35/5/53 43/7/62 44/11/64
f 43/7/65 39/3/58 40/6/59
f 47/12/68 46/15/67 45/14/66
f 43/7/62 49/12/70 48/10/69
f 43/7/65 40/6/59 45/14/71
f 51/11/73 50/10/72 47/12/68
f 45/14/75 52/13/74 41/6/60
f 40/6/59 52/13/76 45/14/71
f 45/14/75 37/7/56 47/12/77
f 54/16/79 29/2/47 53/17/78
f 35/5/53 44/11/64 34/9/52
f 47/12/68 50/10/72 46/15/67
f 49/12/70 45/14/66 48/10/69
f 43/7/65 45/14/71 49/12/80
f 42/4/61 54/16/79 53/17/78
f 43/7/62 48/10/69 44/11/64
f 31/3/49 32/1/50 37/7/81
f 37/7/81 51/11/73 47/12/68
f 45/14/66 46/15/67 48/10/69
f 39/3/58 42/4/82 38/8/57
f 31/3/54 36/8/55 30/4/83
f 53/17/78 29/2/47 30/4/48
f 42/4/61 33/2/51 54/16/79
f 39/3/63 35/5/53 42/4/61
f 32/1/50 51/11/73 37/7/81
f 45/14/75 41/6/60 37/7/56
f 30/4/83 55/18/85 53/17/84
f 55/18/85 30/4/83 36/8/55
f 34/9/86 51/11/87 56/9/86
f 51/11/87 34/9/86 44/11/87
f 55/18/89 42/4/82 53/17/88
f 42/4/82 55/18/89 38/8/57
f 36/8/55 52/13/74 55/18/85
f 52/13/74 36/8/55 41/6/60
f 33/2/90 29/2/90 54/16/90
f 29/2/90 33/2/90 56/9/86
f 56/9/86 33/2/90 34/9/86
f 52/13/76 38/8/57 55/18/89
f 38/8/57 52/13/76 40/6/59
f 44/11/87 50/10/91 51/11/87
f 50/10/91 44/11/87 46/15/91
f 46/15/91 44/11/87 48/10/91
f 32/1/50 56/9/92 51/11/73
f 56/9/92 32/1/50 29/2/47
f 59/9/95 58/5/94 57/11/93
f 62/6/98 61/14/97 60/7/96
f 64/7/101 63/12/100 61/14/99
f 66/1/104 64/7/103 65/3/102
f 67/15/107 61/14/106 63/12/105
f 67/15/107 63/12/105 68/10/108
f 61/14/97 69/12/109 60/7/96
f 70/11/110 63/12/105 64/7/103
f 73/16/113 72/4/112 71/2/111
f 72/4/112 74/3/114 58/5/94
f 75/13/115 61/14/97 62/6/98
f 70/11/110 68/10/108 63/12/105
f 76/10/117 69/12/116 61/14/106
f 60/7/118 76/10/117 57/11/93
f 77/6/120 61/14/99 75/13/119
f 72/4/123 78/8/122 74/3/121
f 79/17/124 72/4/112 73/16/113
f 79/17/124 73/16/113 80/2/125
f 76/10/117 60/7/118 69/12/116
f 81/4/126 79/17/124 80/2/125
f 76/10/117 61/14/106 67/15/107
f 64/7/101 61/14/99 77/6/120
f 81/4/129 65/3/128 82/8/127
f 82/8/127 64/7/101 77/6/120
f 58/5/94 74/3/114 60/7/118
f 74/3/121 62/6/98 60/7/96
f 58/5/94 60/7/118 57/11/93
f 71/2/111 58/5/94 59/9/95
f 80/2/125 66/1/104 65/3/102
f 82/8/127 65/3/128 64/7/101
f 74/3/121 78/8/122 62/6/98
f 66/1/104 70/11/110 64/7/103
f 71/2/111 72/4/112 58/5/94
f 80/2/125 65/3/102 81/4/126
f 66/1/104 83/9/130 70/11/110
f 83/9/130 66/1/104 80/2/125
f 68/10/131 76/10/131 67/15/131
f 76/10/131 68/10/131 70/11/132
f 76/10/131 70/11/132 57/11/132
f 78/8/122 79/17/134 84/18/133
f 79/17/134 78/8/122 72/4/123
f 83/9/135 57/11/132 70/11/132
f 57/11/132 83/9/135 59/9/135
f 80/2/136 59/9/135 83/9/135
f 59/9/135 80/2/136 73/16/136
f 59/9/135 73/16/136 71/2/136
f 84/18/137 81/4/129 82/8/127
f 81/4/129 84/18/137 79/17/138
f 62/6/98 84/18/133 75/13/115
f 84/18/133 62/6/98 78/8/122
f 75/13/119 82/8/127 77/6/120
f 82/8/127 75/13/119 84/18/137

