# Created by Kenney (www.kenney.nl)

mtllib rocks-low.mtl

g rocks-low

v 0.5 0.45 -0.3 1 1 1
v 0.45 0.45 -0.15 1 1 1
v 0.45 0.45 -0.45 1 1 1
v 0.2 0.45 -0.2 1 1 1
v 0.3 0.45 -0.5 1 1 1
v 0.15 0.45 -0.45 1 1 1
v -0.15 0.45 0.45 1 1 1
v -0.3 0.45 0.5 1 1 1
v -0.2 0.45 0.2 1 1 1
v -0.45 0.45 0.15 1 1 1
v -0.45 0.45 0.45 1 1 1
v -0.5 0.45 0.3 1 1 1
v -0.15 0.5 -0.45 1 1 1
v -0.2 0.5 -0.2 1 1 1
v -0.3 0.5 -0.5 1 1 1
v -0.45 0.5 -0.15 1 1 1
v -0.45 0.5 -0.45 1 1 1
v -0.5 0.5 -0.3 1 1 1
v 0.5 0.5 0.3 1 1 1
v 0.45 0.5 0.45 1 1 1
v 0.45 0.5 0.15 1 1 1
v 0.3 0.5 0.5 1 1 1
v 0.2 0.5 0.2 1 1 1
v 0.15 0.5 0.45 1 1 1
v 0.2 1.804779E-16 0.2 1 1 1
v 0.45 1.804779E-16 0.15 1 1 1
v 0.15 1.804779E-16 0.45 1 1 1
v 0.3 1.804779E-16 0.5 1 1 1
v 0.5 1.804779E-16 -0.3 1 1 1
v 0.45 1.804779E-16 -0.45 1 1 1
v 0.45 1.804779E-16 -0.15 1 1 1
v 0.2 1.804779E-16 -0.2 1 1 1
v 0.3 1.804779E-16 -0.5 1 1 1
v 0.15 1.804779E-16 -0.45 1 1 1
v 0.5 1.804779E-16 0.3 1 1 1
v 0.45 1.804779E-16 0.45 1 1 1
v -0.5 0 -0.3 1 1 1
v -0.45 0 -0.15 1 1 1
v -0.15 0 -0.45 1 1 1
v -0.3 0 -0.5 1 1 1
v -0.2 0 -0.2 1 1 1
v -0.45 0 -0.45 1 1 1
v -0.2 0 0.2 1 1 1
v -0.15 0 0.45 1 1 1
v -0.5 0 0.3 1 1 1
v -0.45 0 0.45 1 1 1
v -0.3 0 0.5 1 1 1
v -0.45 0 0.15 1 1 1
v -0.3256964 0.433 -0.01826661 1 1 1
v -0.3860179 0.433 -0.03965138 1 1 1
v -0.3043116 0.433 -0.07858817 1 1 1
v -0.3646332 0.433 -0.09997295 1 1 1
v -0.2813317 0.4 -0.08953916 1 1 1
v -0.3147454 0.4 0.004713308 1 1 1
v -0.4089979 0.4 -0.0287004 1 1 1
v -0.3755842 0.4 -0.1229529 1 1 1
v -0.2391981 0.42277 -0.09739805 1 1 1
v -0.2090262 0.42277 -0.1296434 1 1 1
v -0.2069527 0.42277 -0.06722619 1 1 1
v -0.1767809 0.42277 -0.09947156 1 1 1
v -0.2063695 0.4 -0.04967134 1 1 1
v -0.256753 0.4 -0.09681488 1 1 1
v -0.2096094 0.4 -0.1471983 1 1 1
v -0.159226 0.4 -0.1000547 1 1 1
v 0.3619864 0.52277 0.2393024 1 1 1
v 0.3921583 0.52277 0.2070571 1 1 1
v 0.3942318 0.52277 0.2694743 1 1 1
v 0.4244036 0.52277 0.2372289 1 1 1
v 0.394815 0.5 0.2870291 1 1 1
v 0.3444316 0.5 0.2398856 1 1 1
v 0.3915751 0.5 0.1895022 1 1 1
v 0.4419585 0.5 0.2366458 1 1 1
v 0.5 0.4 0.1 1 1 1
v 0.45 0.4 0.15 1 1 1
v 0.5 0.4 -0.1 1 1 1
v 0.45 0.4 -0.15 1 1 1
v 0.2 0.4 0.2 1 1 1
v 0.2 0.4 -0.2 1 1 1
v 0.15 0.4 0.45 1 1 1
v 0.15 0.4 -0.45 1 1 1
v 0.1 0.4 0.5 1 1 1
v 0.1 0.4 -0.5 1 1 1
v -0.1 0.4 0.5 1 1 1
v -0.1 0.4 -0.5 1 1 1
v -0.15 0.4 0.45 1 1 1
v -0.15 0.4 -0.45 1 1 1
v -0.2 0.4 0.2 1 1 1
v -0.2 0.4 -0.2 1 1 1
v -0.45 0.4 0.15 1 1 1
v -0.45 0.4 -0.15 1 1 1
v -0.5 0.4 0.1 1 1 1
v -0.5 0.4 -0.1 1 1 1
v 0.2 0 -0.2 1 1 1
v 0.45 0 -0.15 1 1 1
v -0.1 0 0.5 1 1 1
v 0.2 0 0.2 1 1 1
v 0.15 0 0.45 1 1 1
v 0.45 0 0.15 1 1 1
v 0.15 0 -0.45 1 1 1
v -0.1 0 -0.5 1 1 1
v 0.5 0 0.1 1 1 1
v -0.5 0 -0.1 1 1 1
v 0.1 0 0.5 1 1 1
v 0.5 0 -0.1 1 1 1
v 0.1 0 -0.5 1 1 1
v -0.5 0 0.1 1 1 1

vn 0 1 0
vn 0 -1 0
vn -0.1961161 0 -0.9805807
vn 0.1961161 0 0.9805807
vn -0.9805807 0 -0.1961161
vn 0.9805807 0 0.1961161
vn -0.3162278 0 0.9486833
vn 0.3162278 0 -0.9486833
vn 0.9486833 0 0.3162278
vn -0.9486833 0 -0.3162278
vn 0.3162278 0 0.9486833
vn -0.3162278 0 -0.9486833
vn 0.9486833 0 -0.3162278
vn -0.9486833 0 0.3162278
vn -0.1961161 0 0.9805807
vn 0.1961161 0 -0.9805807
vn -0.9805807 0 0.1961161
vn 0.9805807 0 -0.1961161
vn 0.2502182 0.8134469 0.5250667
vn -0.5250667 0.8134469 0.2502182
vn 0.5250667 0.8134469 -0.2502182
vn -0.2502182 0.8134469 -0.5250667
vn 0.714784 0.6107839 -0.3406272
vn 0.3406272 0.6107839 0.714784
vn -0.714784 0.6107839 0.3406272
vn -0.3406272 0.6107839 -0.714784
vn -0.5813185 0.8134469 0.01931146
vn -0.01931146 0.8134469 -0.5813185
vn 0.01931146 0.8134469 0.5813185
vn 0.5813185 0.8134469 -0.01931146
vn 0.02628911 0.6107839 0.7913608
vn -0.7913608 0.6107839 0.02628911
vn -0.02628911 0.6107839 -0.7913608
vn 0.7913608 0.6107839 -0.02628911
vn -0.7071068 0 0.7071068
vn 0.7071068 0 -0.7071068
vn -0.7071068 0 -0.7071068
vn 0.7071068 0 0.7071068
vn 0 0 1
vn 0 0 -1
vn -1 0 0
vn 1 0 0

vt 0.09375 0.205
vt 0.09375 0.225
vt 0.09375 0.025
vt 0.09375 0.145
vt 0.09375 0.105

usemtl colormap

f 3/1/1 2/1/1 1/1/1
f 2/1/1 3/1/1 4/1/1
f 4/1/1 3/1/1 5/1/1
f 4/1/1 5/1/1 6/1/1
f 1/1/2 2/1/2 3/1/2
f 4/1/2 3/1/2 2/1/2
f 5/1/2 3/1/2 4/1/2
f 6/1/2 5/1/2 4/1/2
f 9/1/1 8/1/1 7/1/1
f 8/1/1 9/1/1 10/1/1
f 8/1/1 10/1/1 11/1/1
f 11/1/1 10/1/1 12/1/1
f 7/1/2 8/1/2 9/1/2
f 10/1/2 9/1/2 8/1/2
f 11/1/2 10/1/2 8/1/2
f 12/1/2 10/1/2 11/1/2
f 15/2/1 14/2/1 13/2/1
f 14/2/1 15/2/1 16/2/1
f 16/2/1 15/2/1 17/2/1
f 16/2/1 17/2/1 18/2/1
f 13/2/2 14/2/2 15/2/2
f 16/2/2 15/2/2 14/2/2
f 17/2/2 15/2/2 16/2/2
f 18/2/2 17/2/2 16/2/2
f 21/2/1 20/2/1 19/2/1
f 20/2/1 21/2/1 22/2/1
f 22/2/1 21/2/1 23/2/1
f 22/2/1 23/2/1 24/2/1
f 19/2/2 20/2/2 21/2/2
f 22/2/2 21/2/2 20/2/2
f 23/2/2 21/2/2 22/2/2
f 24/2/2 23/2/2 22/2/2
f 23/2/3 26/3/3 25/3/3
f 26/3/3 23/2/3 21/2/3
f 25/3/4 26/3/4 23/2/4
f 21/2/4 23/2/4 26/3/4
f 27/3/5 23/2/5 25/3/5
f 23/2/5 27/3/5 24/2/5
f 25/3/6 23/2/6 27/3/6
f 24/2/6 27/3/6 23/2/6
f 22/2/7 27/3/7 28/3/7
f 27/3/7 22/2/7 24/2/7
f 28/3/8 27/3/8 22/2/8
f 24/2/8 22/2/8 27/3/8
f 31/3/2 30/3/2 29/3/2
f 30/3/2 31/3/2 32/3/2
f 30/3/2 32/3/2 33/3/2
f 33/3/2 32/3/2 34/3/2
f 29/3/1 30/3/1 31/3/1
f 32/3/1 31/3/1 30/3/1
f 33/3/1 32/3/1 30/3/1
f 34/3/1 32/3/1 33/3/1
f 20/2/9 35/3/9 19/2/9
f 35/3/9 20/2/9 36/3/9
f 19/2/10 35/3/10 20/2/10
f 36/3/10 20/2/10 35/3/10
f 20/2/11 28/3/11 36/3/11
f 28/3/11 20/2/11 22/2/11
f 36/3/12 28/3/12 20/2/12
f 22/2/12 20/2/12 28/3/12
f 19/2/13 26/3/13 21/2/13
f 26/3/13 19/2/13 35/3/13
f 21/2/14 26/3/14 19/2/14
f 35/3/14 19/2/14 26/3/14
f 2/1/15 32/3/15 31/3/15
f 32/3/15 2/1/15 4/1/15
f 31/3/16 32/3/16 2/1/16
f 4/1/16 2/1/16 32/3/16
f 5/1/8 30/3/8 33/3/8
f 30/3/8 5/1/8 3/1/8
f 33/3/7 30/3/7 5/1/7
f 3/1/7 5/1/7 30/3/7
f 2/1/9 29/3/9 1/1/9
f 29/3/9 2/1/9 31/3/9
f 1/1/10 29/3/10 2/1/10
f 31/3/10 2/1/10 29/3/10
f 6/1/12 33/3/12 34/3/12
f 33/3/12 6/1/12 5/1/12
f 34/3/11 33/3/11 6/1/11
f 5/1/11 6/1/11 33/3/11
f 32/3/17 6/1/17 34/3/17
f 6/1/17 32/3/17 4/1/17
f 34/3/18 6/1/18 32/3/18
f 4/1/18 32/3/18 6/1/18
f 1/1/13 30/3/13 3/1/13
f 30/3/13 1/1/13 29/3/13
f 3/1/14 30/3/14 1/1/14
f 29/3/14 1/1/14 30/3/14
f 38/3/14 18/2/14 37/3/14
f 18/2/14 38/3/14 16/2/14
f 37/3/13 18/2/13 38/3/13
f 16/2/13 38/3/13 18/2/13
f 36/3/2 26/3/2 35/3/2
f 26/3/2 36/3/2 28/3/2
f 26/3/2 28/3/2 25/3/2
f 25/3/2 28/3/2 27/3/2
f 35/3/1 26/3/1 36/3/1
f 28/3/1 36/3/1 26/3/1
f 25/3/1 28/3/1 26/3/1
f 27/3/1 28/3/1 25/3/1
f 41/3/2 40/3/2 39/3/2
f 40/3/2 41/3/2 38/3/2
f 40/3/2 38/3/2 42/3/2
f 42/3/2 38/3/2 37/3/2
f 39/3/1 40/3/1 41/3/1
f 38/3/1 41/3/1 40/3/1
f 42/3/1 38/3/1 40/3/1
f 37/3/1 38/3/1 42/3/1
f 14/2/6 39/3/6 13/2/6
f 39/3/6 14/2/6 41/3/6
f 13/2/5 39/3/5 14/2/5
f 41/3/5 14/2/5 39/3/5
f 14/2/4 38/3/4 41/3/4
f 38/3/4 14/2/4 16/2/4
f 41/3/3 38/3/3 14/2/3
f 16/2/3 14/2/3 38/3/3
f 15/2/8 39/3/8 40/3/8
f 39/3/8 15/2/8 13/2/8
f 40/3/7 39/3/7 15/2/7
f 13/2/7 15/2/7 39/3/7
f 17/2/12 40/3/12 42/3/12
f 40/3/12 17/2/12 15/2/12
f 42/3/11 40/3/11 17/2/11
f 15/2/11 17/2/11 40/3/11
f 37/3/10 17/2/10 42/3/10
f 17/2/10 37/3/10 18/2/10
f 42/3/9 17/2/9 37/3/9
f 18/2/9 37/3/9 17/2/9
f 7/1/18 43/3/18 9/1/18
f 43/3/18 7/1/18 44/3/18
f 9/1/17 43/3/17 7/1/17
f 44/3/17 7/1/17 43/3/17
f 46/3/14 12/1/14 45/3/14
f 12/1/14 46/3/14 11/1/14
f 45/3/13 12/1/13 46/3/13
f 11/1/13 46/3/13 12/1/13
f 8/1/7 46/3/7 47/3/7
f 46/3/7 8/1/7 11/1/7
f 47/3/8 46/3/8 8/1/8
f 11/1/8 8/1/8 46/3/8
f 47/3/2 43/3/2 44/3/2
f 43/3/2 47/3/2 48/3/2
f 48/3/2 47/3/2 46/3/2
f 48/3/2 46/3/2 45/3/2
f 44/3/1 43/3/1 47/3/1
f 48/3/1 47/3/1 43/3/1
f 46/3/1 47/3/1 48/3/1
f 45/3/1 46/3/1 48/3/1
f 7/1/11 47/3/11 44/3/11
f 47/3/11 7/1/11 8/1/11
f 44/3/12 47/3/12 7/1/12
f 8/1/12 7/1/12 47/3/12
f 10/1/16 43/3/16 48/3/16
f 43/3/16 10/1/16 9/1/16
f 48/3/15 43/3/15 10/1/15
f 9/1/15 10/1/15 43/3/15
f 45/3/10 10/1/10 48/3/10
f 10/1/10 45/3/10 12/1/10
f 48/3/9 10/1/9 45/3/9
f 12/1/9 45/3/9 10/1/9
f 51/2/21 50/2/20 49/2/19
f 50/2/20 51/2/21 52/2/22
f 51/2/21 54/4/24 53/4/23
f 54/4/24 51/2/21 49/2/19
f 50/2/20 56/4/26 55/4/25
f 56/4/26 50/2/20 52/2/22
f 56/4/26 51/2/21 53/4/23
f 51/2/21 56/4/26 52/2/22
f 49/2/19 55/4/25 54/4/24
f 55/4/25 49/2/19 50/2/20
f 59/2/29 58/2/28 57/2/27
f 58/2/28 59/2/29 60/2/30
f 59/2/29 62/4/32 61/4/31
f 62/4/32 59/2/29 57/2/27
f 58/2/28 64/4/34 63/4/33
f 64/4/34 58/2/28 60/2/30
f 64/4/34 59/2/29 61/4/31
f 59/2/29 64/4/34 60/2/30
f 57/2/27 63/4/33 62/4/32
f 63/4/33 57/2/27 58/2/28
f 67/2/29 66/2/28 65/2/27
f 66/2/28 67/2/29 68/2/30
f 67/2/29 70/4/32 69/4/31
f 70/4/32 67/2/29 65/2/27
f 66/2/28 72/4/34 71/4/33
f 72/4/34 66/2/28 68/2/30
f 72/4/34 67/2/29 69/4/31
f 67/2/29 72/4/34 68/2/30
f 65/2/27 71/4/33 70/4/32
f 71/4/33 65/2/27 66/2/28
f 75/5/1 74/5/1 73/5/1
f 74/5/1 75/5/1 76/5/1
f 74/5/1 76/5/1 77/5/1
f 77/5/1 76/5/1 78/5/1
f 77/5/1 78/5/1 79/5/1
f 79/5/1 78/5/1 80/5/1
f 79/5/1 80/5/1 81/5/1
f 81/5/1 80/5/1 82/5/1
f 81/5/1 82/5/1 83/5/1
f 83/5/1 82/5/1 84/5/1
f 83/5/1 84/5/1 85/5/1
f 85/5/1 84/5/1 86/5/1
f 85/5/1 86/5/1 87/5/1
f 87/5/1 86/5/1 88/5/1
f 87/5/1 88/5/1 89/5/1
f 89/5/1 88/5/1 90/5/1
f 89/5/1 90/5/1 91/5/1
f 91/5/1 90/5/1 92/5/1
f 73/5/2 74/5/2 75/5/2
f 76/5/2 75/5/2 74/5/2
f 77/5/2 76/5/2 74/5/2
f 78/5/2 76/5/2 77/5/2
f 79/5/2 78/5/2 77/5/2
f 80/5/2 78/5/2 79/5/2
f 81/5/2 80/5/2 79/5/2
f 82/5/2 80/5/2 81/5/2
f 83/5/2 82/5/2 81/5/2
f 84/5/2 82/5/2 83/5/2
f 85/5/2 84/5/2 83/5/2
f 86/5/2 84/5/2 85/5/2
f 87/5/2 86/5/2 85/5/2
f 88/5/2 86/5/2 87/5/2
f 89/5/2 88/5/2 87/5/2
f 90/5/2 88/5/2 89/5/2
f 91/5/2 90/5/2 89/5/2
f 92/5/2 90/5/2 91/5/2
f 78/5/16 94/3/16 93/3/16
f 94/3/16 78/5/16 76/5/16
f 93/3/15 94/3/15 78/5/15
f 76/5/15 78/5/15 94/3/15
f 83/5/35 44/3/35 95/3/35
f 44/3/35 83/5/35 85/5/35
f 95/3/36 44/3/36 83/5/36
f 85/5/36 83/5/36 44/3/36
f 79/5/6 96/3/6 77/5/6
f 96/3/6 79/5/6 97/3/6
f 77/5/5 96/3/5 79/5/5
f 97/3/5 79/5/5 96/3/5
f 74/5/4 96/3/4 98/3/4
f 96/3/4 74/5/4 77/5/4
f 98/3/3 96/3/3 74/5/3
f 77/5/3 74/5/3 96/3/3
f 78/5/18 99/3/18 80/5/18
f 99/3/18 78/5/18 93/3/18
f 80/5/17 99/3/17 78/5/17
f 93/3/17 78/5/17 99/3/17
f 39/3/37 84/5/37 100/3/37
f 84/5/37 39/3/37 86/5/37
f 100/3/38 84/5/38 39/3/38
f 86/5/38 39/3/38 84/5/38
f 74/5/38 101/3/38 73/5/38
f 101/3/38 74/5/38 98/3/38
f 73/5/37 101/3/37 74/5/37
f 98/3/37 74/5/37 101/3/37
f 102/3/37 90/5/37 38/3/37
f 90/5/37 102/3/37 92/5/37
f 38/3/38 90/5/38 102/3/38
f 92/5/38 102/3/38 90/5/38
f 81/5/38 97/3/38 79/5/38
f 97/3/38 81/5/38 103/3/38
f 79/5/37 97/3/37 81/5/37
f 103/3/37 81/5/37 97/3/37
f 81/5/39 95/3/39 103/3/39
f 95/3/39 81/5/39 83/5/39
f 103/3/40 95/3/40 81/5/40
f 83/5/40 81/5/40 95/3/40
f 76/5/36 104/3/36 94/3/36
f 104/3/36 76/5/36 75/5/36
f 94/3/35 104/3/35 76/5/35
f 75/5/35 76/5/35 104/3/35
f 82/5/36 99/3/36 105/3/36
f 99/3/36 82/5/36 80/5/36
f 105/3/35 99/3/35 82/5/35
f 80/5/35 82/5/35 99/3/35
f 90/5/3 41/3/3 38/3/3
f 41/3/3 90/5/3 88/5/3
f 38/3/4 41/3/4 90/5/4
f 88/5/4 90/5/4 41/3/4
f 41/3/5 86/5/5 39/3/5
f 86/5/5 41/3/5 88/5/5
f 39/3/6 86/5/6 41/3/6
f 88/5/6 41/3/6 86/5/6
f 89/5/35 106/3/35 48/3/35
f 106/3/35 89/5/35 91/5/35
f 48/3/36 106/3/36 89/5/36
f 91/5/36 89/5/36 106/3/36
f 106/3/41 92/5/41 102/3/41
f 92/5/41 106/3/41 91/5/41
f 102/3/42 92/5/42 106/3/42
f 91/5/42 106/3/42 92/5/42
f 84/5/40 105/3/40 100/3/40
f 105/3/40 84/5/40 82/5/40
f 100/3/39 105/3/39 84/5/39
f 82/5/39 84/5/39 105/3/39
f 73/5/42 104/3/42 75/5/42
f 104/3/42 73/5/42 101/3/42
f 75/5/41 104/3/41 73/5/41
f 101/3/41 73/5/41 104/3/41
f 98/3/2 104/3/2 101/3/2
f 104/3/2 98/3/2 94/3/2
f 94/3/2 98/3/2 96/3/2
f 94/3/2 96/3/2 93/3/2
f 93/3/2 96/3/2 97/3/2
f 93/3/2 97/3/2 99/3/2
f 99/3/2 97/3/2 103/3/2
f 99/3/2 103/3/2 105/3/2
f 105/3/2 103/3/2 95/3/2
f 105/3/2 95/3/2 100/3/2
f 100/3/2 95/3/2 44/3/2
f 100/3/2 44/3/2 39/3/2
f 39/3/2 44/3/2 43/3/2
f 39/3/2 43/3/2 41/3/2
f 41/3/2 43/3/2 48/3/2
f 41/3/2 48/3/2 38/3/2
f 38/3/2 48/3/2 106/3/2
f 38/3/2 106/3/2 102/3/2
f 101/3/1 104/3/1 98/3/1
f 94/3/1 98/3/1 104/3/1
f 96/3/1 98/3/1 94/3/1
f 93/3/1 96/3/1 94/3/1
f 97/3/1 96/3/1 93/3/1
f 99/3/1 97/3/1 93/3/1
f 103/3/1 97/3/1 99/3/1
f 105/3/1 103/3/1 99/3/1
f 95/3/1 103/3/1 105/3/1
f 100/3/1 95/3/1 105/3/1
f 44/3/1 95/3/1 100/3/1
f 39/3/1 44/3/1 100/3/1
f 43/3/1 44/3/1 39/3/1
f 41/3/1 43/3/1 39/3/1
f 48/3/1 43/3/1 41/3/1
f 38/3/1 48/3/1 41/3/1
f 106/3/1 48/3/1 38/3/1
f 102/3/1 106/3/1 38/3/1
f 87/5/15 48/3/15 43/3/15
f 48/3/15 87/5/15 89/5/15
f 43/3/16 48/3/16 87/5/16
f 89/5/16 87/5/16 48/3/16
f 44/3/17 87/5/17 43/3/17
f 87/5/17 44/3/17 85/5/17
f 43/3/18 87/5/18 44/3/18
f 85/5/18 44/3/18 87/5/18

g rocks-low




usemtl colormap

f 3/1/1 2/1/1 1/1/1
f 2/1/1 3/1/1 4/1/1
f 4/1/1 3/1/1 5/1/1
f 4/1/1 5/1/1 6/1/1
f 1/1/2 2/1/2 3/1/2
f 4/1/2 3/1/2 2/1/2
f 5/1/2 3/1/2 4/1/2
f 6/1/2 5/1/2 4/1/2
f 9/1/1 8/1/1 7/1/1
f 8/1/1 9/1/1 10/1/1
f 8/1/1 10/1/1 11/1/1
f 11/1/1 10/1/1 12/1/1
f 7/1/2 8/1/2 9/1/2
f 10/1/2 9/1/2 8/1/2
f 11/1/2 10/1/2 8/1/2
f 12/1/2 10/1/2 11/1/2
f 15/2/1 14/2/1 13/2/1
f 14/2/1 15/2/1 16/2/1
f 16/2/1 15/2/1 17/2/1
f 16/2/1 17/2/1 18/2/1
f 13/2/2 14/2/2 15/2/2
f 16/2/2 15/2/2 14/2/2
f 17/2/2 15/2/2 16/2/2
f 18/2/2 17/2/2 16/2/2
f 21/2/1 20/2/1 19/2/1
f 20/2/1 21/2/1 22/2/1
f 22/2/1 21/2/1 23/2/1
f 22/2/1 23/2/1 24/2/1
f 19/2/2 20/2/2 21/2/2
f 22/2/2 21/2/2 20/2/2
f 23/2/2 21/2/2 22/2/2
f 24/2/2 23/2/2 22/2/2
f 23/2/3 26/3/3 25/3/3
f 26/3/3 23/2/3 21/2/3
f 25/3/4 26/3/4 23/2/4
f 21/2/4 23/2/4 26/3/4
f 27/3/5 23/2/5 25/3/5
f 23/2/5 27/3/5 24/2/5
f 25/3/6 23/2/6 27/3/6
f 24/2/6 27/3/6 23/2/6
f 22/2/7 27/3/7 28/3/7
f 27/3/7 22/2/7 24/2/7
f 28/3/8 27/3/8 22/2/8
f 24/2/8 22/2/8 27/3/8
f 31/3/2 30/3/2 29/3/2
f 30/3/2 31/3/2 32/3/2
f 30/3/2 32/3/2 33/3/2
f 33/3/2 32/3/2 34/3/2
f 29/3/1 30/3/1 31/3/1
f 32/3/1 31/3/1 30/3/1
f 33/3/1 32/3/1 30/3/1
f 34/3/1 32/3/1 33/3/1
f 20/2/9 35/3/9 19/2/9
f 35/3/9 20/2/9 36/3/9
f 19/2/10 35/3/10 20/2/10
f 36/3/10 20/2/10 35/3/10
f 20/2/11 28/3/11 36/3/11
f 28/3/11 20/2/11 22/2/11
f 36/3/12 28/3/12 20/2/12
f 22/2/12 20/2/12 28/3/12
f 19/2/13 26/3/13 21/2/13
f 26/3/13 19/2/13 35/3/13
f 21/2/14 26/3/14 19/2/14
f 35/3/14 19/2/14 26/3/14
f 2/1/15 32/3/15 31/3/15
f 32/3/15 2/1/15 4/1/15
f 31/3/16 32/3/16 2/1/16
f 4/1/16 2/1/16 32/3/16
f 5/1/8 30/3/8 33/3/8
f 30/3/8 5/1/8 3/1/8
f 33/3/7 30/3/7 5/1/7
f 3/1/7 5/1/7 30/3/7
f 2/1/9 29/3/9 1/1/9
f 29/3/9 2/1/9 31/3/9
f 1/1/10 29/3/10 2/1/10
f 31/3/10 2/1/10 29/3/10
f 6/1/12 33/3/12 34/3/12
f 33/3/12 6/1/12 5/1/12
f 34/3/11 33/3/11 6/1/11
f 5/1/11 6/1/11 33/3/11
f 32/3/17 6/1/17 34/3/17
f 6/1/17 32/3/17 4/1/17
f 34/3/18 6/1/18 32/3/18
f 4/1/18 32/3/18 6/1/18
f 1/1/13 30/3/13 3/1/13
f 30/3/13 1/1/13 29/3/13
f 3/1/14 30/3/14 1/1/14
f 29/3/14 1/1/14 30/3/14
f 38/3/14 18/2/14 37/3/14
f 18/2/14 38/3/14 16/2/14
f 37/3/13 18/2/13 38/3/13
f 16/2/13 38/3/13 18/2/13
f 36/3/2 26/3/2 35/3/2
f 26/3/2 36/3/2 28/3/2
f 26/3/2 28/3/2 25/3/2
f 25/3/2 28/3/2 27/3/2
f 35/3/1 26/3/1 36/3/1
f 28/3/1 36/3/1 26/3/1
f 25/3/1 28/3/1 26/3/1
f 27/3/1 28/3/1 25/3/1
f 41/3/2 40/3/2 39/3/2
f 40/3/2 41/3/2 38/3/2
f 40/3/2 38/3/2 42/3/2
f 42/3/2 38/3/2 37/3/2
f 39/3/1 40/3/1 41/3/1
f 38/3/1 41/3/1 40/3/1
f 42/3/1 38/3/1 40/3/1
f 37/3/1 38/3/1 42/3/1
f 14/2/6 39/3/6 13/2/6
f 39/3/6 14/2/6 41/3/6
f 13/2/5 39/3/5 14/2/5
f 41/3/5 14/2/5 39/3/5
f 14/2/4 38/3/4 41/3/4
f 38/3/4 14/2/4 16/2/4
f 41/3/3 38/3/3 14/2/3
f 16/2/3 14/2/3 38/3/3
f 15/2/8 39/3/8 40/3/8
f 39/3/8 15/2/8 13/2/8
f 40/3/7 39/3/7 15/2/7
f 13/2/7 15/2/7 39/3/7
f 17/2/12 40/3/12 42/3/12
f 40/3/12 17/2/12 15/2/12
f 42/3/11 40/3/11 17/2/11
f 15/2/11 17/2/11 40/3/11
f 37/3/10 17/2/10 42/3/10
f 17/2/10 37/3/10 18/2/10
f 42/3/9 17/2/9 37/3/9
f 18/2/9 37/3/9 17/2/9
f 7/1/18 43/3/18 9/1/18
f 43/3/18 7/1/18 44/3/18
f 9/1/17 43/3/17 7/1/17
f 44/3/17 7/1/17 43/3/17
f 46/3/14 12/1/14 45/3/14
f 12/1/14 46/3/14 11/1/14
f 45/3/13 12/1/13 46/3/13
f 11/1/13 46/3/13 12/1/13
f 8/1/7 46/3/7 47/3/7
f 46/3/7 8/1/7 11/1/7
f 47/3/8 46/3/8 8/1/8
f 11/1/8 8/1/8 46/3/8
f 47/3/2 43/3/2 44/3/2
f 43/3/2 47/3/2 48/3/2
f 48/3/2 47/3/2 46/3/2
f 48/3/2 46/3/2 45/3/2
f 44/3/1 43/3/1 47/3/1
f 48/3/1 47/3/1 43/3/1
f 46/3/1 47/3/1 48/3/1
f 45/3/1 46/3/1 48/3/1
f 7/1/11 47/3/11 44/3/11
f 47/3/11 7/1/11 8/1/11
f 44/3/12 47/3/12 7/1/12
f 8/1/12 7/1/12 47/3/12
f 10/1/16 43/3/16 48/3/16
f 43/3/16 10/1/16 9/1/16
f 48/3/15 43/3/15 10/1/15
f 9/1/15 10/1/15 43/3/15
f 45/3/10 10/1/10 48/3/10
f 10/1/10 45/3/10 12/1/10
f 48/3/9 10/1/9 45/3/9
f 12/1/9 45/3/9 10/1/9
f 51/2/21 50/2/20 49/2/19
f 50/2/20 51/2/21 52/2/22
f 51/2/21 54/4/24 53/4/23
f 54/4/24 51/2/21 49/2/19
f 50/2/20 56/4/26 55/4/25
f 56/4/26 50/2/20 52/2/22
f 56/4/26 51/2/21 53/4/23
f 51/2/21 56/4/26 52/2/22
f 49/2/19 55/4/25 54/4/24
f 55/4/25 49/2/19 50/2/20
f 59/2/29 58/2/28 57/2/27
f 58/2/28 59/2/29 60/2/30
f 59/2/29 62/4/32 61/4/31
f 62/4/32 59/2/29 57/2/27
f 58/2/28 64/4/34 63/4/33
f 64/4/34 58/2/28 60/2/30
f 64/4/34 59/2/29 61/4/31
f 59/2/29 64/4/34 60/2/30
f 57/2/27 63/4/33 62/4/32
f 63/4/33 57/2/27 58/2/28
f 67/2/29 66/2/28 65/2/27
f 66/2/28 67/2/29 68/2/30
f 67/2/29 70/4/32 69/4/31
f 70/4/32 67/2/29 65/2/27
f 66/2/28 72/4/34 71/4/33
f 72/4/34 66/2/28 68/2/30
f 72/4/34 67/2/29 69/4/31
f 67/2/29 72/4/34 68/2/30
f 65/2/27 71/4/33 70/4/32
f 71/4/33 65/2/27 66/2/28
f 75/5/1 74/5/1 73/5/1
f 74/5/1 75/5/1 76/5/1
f 74/5/1 76/5/1 77/5/1
f 77/5/1 76/5/1 78/5/1
f 77/5/1 78/5/1 79/5/1
f 79/5/1 78/5/1 80/5/1
f 79/5/1 80/5/1 81/5/1
f 81/5/1 80/5/1 82/5/1
f 81/5/1 82/5/1 83/5/1
f 83/5/1 82/5/1 84/5/1
f 83/5/1 84/5/1 85/5/1
f 85/5/1 84/5/1 86/5/1
f 85/5/1 86/5/1 87/5/1
f 87/5/1 86/5/1 88/5/1
f 87/5/1 88/5/1 89/5/1
f 89/5/1 88/5/1 90/5/1
f 89/5/1 90/5/1 91/5/1
f 91/5/1 90/5/1 92/5/1
f 73/5/2 74/5/2 75/5/2
f 76/5/2 75/5/2 74/5/2
f 77/5/2 76/5/2 74/5/2
f 78/5/2 76/5/2 77/5/2
f 79/5/2 78/5/2 77/5/2
f 80/5/2 78/5/2 79/5/2
f 81/5/2 80/5/2 79/5/2
f 82/5/2 80/5/2 81/5/2
f 83/5/2 82/5/2 81/5/2
f 84/5/2 82/5/2 83/5/2
f 85/5/2 84/5/2 83/5/2
f 86/5/2 84/5/2 85/5/2
f 87/5/2 86/5/2 85/5/2
f 88/5/2 86/5/2 87/5/2
f 89/5/2 88/5/2 87/5/2
f 90/5/2 88/5/2 89/5/2
f 91/5/2 90/5/2 89/5/2
f 92/5/2 90/5/2 91/5/2
f 78/5/16 94/3/16 93/3/16
f 94/3/16 78/5/16 76/5/16
f 93/3/15 94/3/15 78/5/15
f 76/5/15 78/5/15 94/3/15
f 83/5/35 44/3/35 95/3/35
f 44/3/35 83/5/35 85/5/35
f 95/3/36 44/3/36 83/5/36
f 85/5/36 83/5/36 44/3/36
f 79/5/6 96/3/6 77/5/6
f 96/3/6 79/5/6 97/3/6
f 77/5/5 96/3/5 79/5/5
f 97/3/5 79/5/5 96/3/5
f 74/5/4 96/3/4 98/3/4
f 96/3/4 74/5/4 77/5/4
f 98/3/3 96/3/3 74/5/3
f 77/5/3 74/5/3 96/3/3
f 78/5/18 99/3/18 80/5/18
f 99/3/18 78/5/18 93/3/18
f 80/5/17 99/3/17 78/5/17
f 93/3/17 78/5/17 99/3/17
f 39/3/37 84/5/37 100/3/37
f 84/5/37 39/3/37 86/5/37
f 100/3/38 84/5/38 39/3/38
f 86/5/38 39/3/38 84/5/38
f 74/5/38 101/3/38 73/5/38
f 101/3/38 74/5/38 98/3/38
f 73/5/37 101/3/37 74/5/37
f 98/3/37 74/5/37 101/3/37
f 102/3/37 90/5/37 38/3/37
f 90/5/37 102/3/37 92/5/37
f 38/3/38 90/5/38 102/3/38
f 92/5/38 102/3/38 90/5/38
f 81/5/38 97/3/38 79/5/38
f 97/3/38 81/5/38 103/3/38
f 79/5/37 97/3/37 81/5/37
f 103/3/37 81/5/37 97/3/37
f 81/5/39 95/3/39 103/3/39
f 95/3/39 81/5/39 83/5/39
f 103/3/40 95/3/40 81/5/40
f 83/5/40 81/5/40 95/3/40
f 76/5/36 104/3/36 94/3/36
f 104/3/36 76/5/36 75/5/36
f 94/3/35 104/3/35 76/5/35
f 75/5/35 76/5/35 104/3/35
f 82/5/36 99/3/36 105/3/36
f 99/3/36 82/5/36 80/5/36
f 105/3/35 99/3/35 82/5/35
f 80/5/35 82/5/35 99/3/35
f 90/5/3 41/3/3 38/3/3
f 41/3/3 90/5/3 88/5/3
f 38/3/4 41/3/4 90/5/4
f 88/5/4 90/5/4 41/3/4
f 41/3/5 86/5/5 39/3/5
f 86/5/5 41/3/5 88/5/5
f 39/3/6 86/5/6 41/3/6
f 88/5/6 41/3/6 86/5/6
f 89/5/35 106/3/35 48/3/35
f 106/3/35 89/5/35 91/5/35
f 48/3/36 106/3/36 89/5/36
f 91/5/36 89/5/36 106/3/36
f 106/3/41 92/5/41 102/3/41
f 92/5/41 106/3/41 91/5/41
f 102/3/42 92/5/42 106/3/42
f 91/5/42 106/3/42 92/5/42
f 84/5/40 105/3/40 100/3/40
f 105/3/40 84/5/40 82/5/40
f 100/3/39 105/3/39 84/5/39
f 82/5/39 84/5/39 105/3/39
f 73/5/42 104/3/42 75/5/42
f 104/3/42 73/5/42 101/3/42
f 75/5/41 104/3/41 73/5/41
f 101/3/41 73/5/41 104/3/41
f 98/3/2 104/3/2 101/3/2
f 104/3/2 98/3/2 94/3/2
f 94/3/2 98/3/2 96/3/2
f 94/3/2 96/3/2 93/3/2
f 93/3/2 96/3/2 97/3/2
f 93/3/2 97/3/2 99/3/2
f 99/3/2 97/3/2 103/3/2
f 99/3/2 103/3/2 105/3/2
f 105/3/2 103/3/2 95/3/2
f 105/3/2 95/3/2 100/3/2
f 100/3/2 95/3/2 44/3/2
f 100/3/2 44/3/2 39/3/2
f 39/3/2 44/3/2 43/3/2
f 39/3/2 43/3/2 41/3/2
f 41/3/2 43/3/2 48/3/2
f 41/3/2 48/3/2 38/3/2
f 38/3/2 48/3/2 106/3/2
f 38/3/2 106/3/2 102/3/2
f 101/3/1 104/3/1 98/3/1
f 94/3/1 98/3/1 104/3/1
f 96/3/1 98/3/1 94/3/1
f 93/3/1 96/3/1 94/3/1
f 97/3/1 96/3/1 93/3/1
f 99/3/1 97/3/1 93/3/1
f 103/3/1 97/3/1 99/3/1
f 105/3/1 103/3/1 99/3/1
f 95/3/1 103/3/1 105/3/1
f 100/3/1 95/3/1 105/3/1
f 44/3/1 95/3/1 100/3/1
f 39/3/1 44/3/1 100/3/1
f 43/3/1 44/3/1 39/3/1
f 41/3/1 43/3/1 39/3/1
f 48/3/1 43/3/1 41/3/1
f 38/3/1 48/3/1 41/3/1
f 106/3/1 48/3/1 38/3/1
f 102/3/1 106/3/1 38/3/1
f 87/5/15 48/3/15 43/3/15
f 48/3/15 87/5/15 89/5/15
f 43/3/16 48/3/16 87/5/16
f 89/5/16 87/5/16 48/3/16
f 44/3/17 87/5/17 43/3/17
f 87/5/17 44/3/17 85/5/17
f 43/3/18 87/5/18 44/3/18
f 85/5/18 44/3/18 87/5/18

