# Created by Kenney (www.kenney.nl)

mtllib stones.mtl

g stones

v -0.007476136 1.804779E-16 0.1911529 1 1 1
v 0.0459791 0.0822375 0.190865 1 1 1
v 0.07897379 1.804779E-16 0.3617489 1 1 1
v 0.1108166 0.0822375 0.3188119 1 1 1
v 0.03459686 1.804779E-16 0.06263 1 1 1
v 0.07753386 0.0822375 0.09447277 1 1 1
v 0.2051928 1.804779E-16 -0.02381992 1 1 1
v 0.3337157 1.804779E-16 0.01825307 1 1 1
v 0.2054808 0.0822375 0.02963531 1 1 1
v 0.301873 0.0822375 0.06119007 1 1 1
v 0.4201657 1.804779E-16 0.188849 1 1 1
v 0.3667104 0.0822375 0.189137 1 1 1
v 0.2074967 1.804779E-16 0.4038219 1 1 1
v 0.2072088 0.0822375 0.3503667 1 1 1
v 0.3351557 0.0822375 0.2855292 1 1 1
v 0.3780927 1.804779E-16 0.317372 1 1 1
v 0.02978099 0 -0.313098 1 1 1
v 0.02978099 0 -0.3725436 1 1 1
v -0.02170041 0 -0.2833752 1 1 1
v -0.02170041 0 -0.4022664 1 1 1
v -0.07318181 0 -0.313098 1 1 1
v -0.07318181 0 -0.3725436 1 1 1
v 0.01021806 0.04711188 -0.3612489 1 1 1
v 0.01021806 0.04711188 -0.3243926 1 1 1
v -0.02170041 0.04711188 -0.379677 1 1 1
v -0.02170041 0.04711188 -0.3059645 1 1 1
v -0.05361888 0.04711188 -0.3612489 1 1 1
v -0.05361888 0.04711188 -0.3243926 1 1 1
v -0.167784 4.308909E-16 -0.002797335 1 1 1
v -0.1672594 0.19125 0.05065611 1 1 1
v -0.3379956 4.308909E-16 0.08440673 1 1 1
v -0.2949182 0.19125 0.1160592 1 1 1
v -0.03907609 4.308909E-16 0.03870648 1 1 1
v -0.07072851 0.19125 0.08178395 1 1 1
v 0.04812798 4.308909E-16 0.2089182 1 1 1
v 0.006624162 4.308909E-16 0.337626 1 1 1
v -0.005325466 0.19125 0.2094427 1 1 1
v -0.03645331 0.19125 0.3059736 1 1 1
v -0.1635875 4.308909E-16 0.4248301 1 1 1
v -0.1641121 0.19125 0.3713767 1 1 1
v -0.3794995 4.308909E-16 0.2131146 1 1 1
v -0.326046 0.19125 0.2125901 1 1 1
v -0.260643 0.19125 0.3402488 1 1 1
v -0.2922954 4.308909E-16 0.3833263 1 1 1
v -0.05531791 3.158362E-16 0.1642072 1 1 1
v -0.1052279 0.0822375 0.1450621 1 1 1
v -0.0739097 3.158362E-16 -0.02613702 1 1 1
v -0.1191718 0.0822375 0.002303958 1 1 1
v -0.1411941 3.158362E-16 0.2686751 1 1 1
v -0.1696351 0.0822375 0.2234131 1 1 1
v -0.3315383 3.158362E-16 0.287267 1 1 1
v -0.4360063 3.158362E-16 0.2013907 1 1 1
v -0.3123932 0.0822375 0.2373569 1 1 1
v -0.3907442 0.0822375 0.1729498 1 1 1
v -0.4545981 3.158362E-16 0.01104654 1 1 1
v -0.4046881 0.0822375 0.03019162 1 1 1
v -0.1783777 3.158362E-16 -0.1120132 1 1 1
v -0.1975228 0.0822375 -0.0621032 1 1 1
v -0.3402809 0.0822375 -0.04815938 1 1 1
v -0.3687219 3.158362E-16 -0.09342144 1 1 1
v 0.03267798 3.541878E-16 0.1344343 1 1 1
v 0.06328524 0.3075725 0.09060803 1 1 1
v 0.2218936 3.541878E-16 0.1622555 1 1 1
v 0.2051969 0.3075725 0.1114739 1 1 1
v -0.04801922 3.541878E-16 0.02591589 1 1 1
v 0.002762347 0.3075725 0.009219233 1 1 1
v -0.02019803 3.541878E-16 -0.1632997 1 1 1
v 0.08832037 3.541878E-16 -0.2439969 1 1 1
v 0.02362823 0.3075725 -0.1326925 1 1 1
v 0.105017 0.3075725 -0.1932153 1 1 1
v 0.277536 3.541878E-16 -0.2161757 1 1 1
v 0.2469287 0.3075725 -0.1723495 1 1 1
v 0.330412 3.541878E-16 0.08155829 1 1 1
v 0.2865857 0.3075725 0.05095102 1 1 1
v 0.3074516 0.3075725 -0.09096067 1 1 1
v 0.3582332 3.541878E-16 -0.1076573 1 1 1
v -0.1068126 7.219114E-16 -0.2025123 1 1 1
v -0.1068126 7.219114E-16 -0.2983924 1 1 1
v -0.1898471 7.219114E-16 -0.1545723 1 1 1
v -0.1898471 7.219114E-16 -0.3463323 1 1 1
v -0.2728816 7.219114E-16 -0.2025123 1 1 1
v -0.2728816 7.219114E-16 -0.2983924 1 1 1
v -0.1383657 0.07598691 -0.2801751 1 1 1
v -0.1383657 0.07598691 -0.2207295 1 1 1
v -0.1898471 0.07598691 -0.3098979 1 1 1
v -0.1898471 0.07598691 -0.1910067 1 1 1
v -0.2413285 0.07598691 -0.2801751 1 1 1
v -0.2413285 0.07598691 -0.2207295 1 1 1
v -0.1495214 3.158362E-16 0.02174629 1 1 1
v -0.1176464 0.4539 0.03768378 1 1 1
v -0.1495214 3.158362E-16 0.1492463 1 1 1
v -0.1176464 0.4539 0.1333088 1 1 1
v -0.08577137 3.158362E-16 -0.04200372 1 1 1
v -0.06983389 0.4539 -0.01012872 1 1 1
v 0.04172862 3.158362E-16 -0.04200372 1 1 1
v 0.1054786 3.158362E-16 0.02174629 1 1 1
v 0.02579112 0.4539 -0.01012872 1 1 1
v 0.07360363 0.4539 0.03768378 1 1 1
v 0.1054786 3.158362E-16 0.1492463 1 1 1
v 0.07360363 0.4539 0.1333088 1 1 1
v -0.08577137 3.158362E-16 0.2129963 1 1 1
v -0.06983389 0.4539 0.1811213 1 1 1
v 0.02579112 0.4539 0.1811213 1 1 1
v 0.04172862 3.158362E-16 0.2129963 1 1 1
v 0.429792 0.04711188 0.3719764 1 1 1
v 0.429792 0.04711188 0.4088327 1 1 1
v 0.3978735 0.04711188 0.3535483 1 1 1
v 0.3978735 0.04711188 0.4272608 1 1 1
v 0.365955 0.04711188 0.3719764 1 1 1
v 0.365955 0.04711188 0.4088327 1 1 1
v 0.3463921 0 0.3606818 1 1 1
v 0.3978735 0 0.330959 1 1 1
v 0.3463921 0 0.4201274 1 1 1
v 0.4493549 0 0.3606818 1 1 1
v 0.3978735 0 0.4498502 1 1 1
v 0.4493549 0 0.4201274 1 1 1
v 0.4398919 0 -0.2520846 1 1 1
v 0.4398919 0 -0.3479646 1 1 1
v 0.3568574 0 -0.2041446 1 1 1
v 0.3568574 0 -0.3959046 1 1 1
v 0.2738229 0 -0.2520846 1 1 1
v 0.2738229 0 -0.3479646 1 1 1
v 0.4083388 0.07598691 -0.3297474 1 1 1
v 0.4083388 0.07598691 -0.2703018 1 1 1
v 0.3568574 0.07598691 -0.3594702 1 1 1
v 0.3568574 0.07598691 -0.240579 1 1 1
v 0.305376 0.07598691 -0.3297474 1 1 1
v 0.305376 0.07598691 -0.2703018 1 1 1
v -0.1813799 0.2383619 0.1830271 1 1 1
v -0.1813799 0.2383619 0.2198834 1 1 1
v -0.2132983 0.2383619 0.1645989 1 1 1
v -0.2132983 0.2383619 0.2383115 1 1 1
v -0.2452168 0.2383619 0.1830271 1 1 1
v -0.2452168 0.2383619 0.2198834 1 1 1
v -0.2647797 0.19125 0.1717324 1 1 1
v -0.2132983 0.19125 0.1420096 1 1 1
v -0.2647797 0.19125 0.231178 1 1 1
v -0.1618169 0.19125 0.1717324 1 1 1
v -0.2132983 0.19125 0.2609008 1 1 1
v -0.1618169 0.19125 0.231178 1 1 1

vn -0.8366731 0.5440668 0.06300415
vn -0.8365613 0.5440012 0.06502303
vn -0.5455704 0.5440667 0.6374514
vn -0.5471323 0.5440012 0.6361674
vn -0.6374514 0.5440667 -0.5455705
vn -0.6361673 0.5440011 -0.5471324
vn -0.06300418 0.5440667 -0.8366731
vn 0.5455704 0.5440667 -0.6374514
vn -0.06502303 0.5440012 -0.8365613
vn 0.5471323 0.5440012 -0.6361674
vn 0.8366731 0.5440668 -0.06300415
vn 0.8365613 0.5440012 -0.06502303
vn 0.06300418 0.5440667 0.8366731
vn 0.06502303 0.5440012 0.8365613
vn 0 1 0
vn 0.6374514 0.5440667 0.5455705
vn 0.6361673 0.5440011 0.5471324
vn 0 -1 0
vn -0.7808995 0.4323519 -0.4508525
vn 0 0.4323519 -0.901705
vn -0.7808995 0.4323519 0.4508525
vn 0.7808995 0.4323519 -0.4508525
vn 0 0.4323519 0.901705
vn 0.7808995 0.4323519 0.4508525
vn -0.07658165 0.2685832 -0.9602074
vn -0.07889579 0.2685406 -0.9600319
vn -0.7345864 0.2685832 -0.6230937
vn -0.7330922 0.2685406 -0.6248694
vn 0.6230937 0.2685832 -0.7345865
vn 0.6248694 0.2685406 -0.7330922
vn 0.9602074 0.2685833 -0.07658166
vn 0.7345864 0.2685832 0.6230937
vn 0.9600319 0.2685406 -0.07889579
vn 0.7330922 0.2685406 0.6248694
vn 0.07658165 0.2685832 0.9602074
vn 0.07889579 0.2685406 0.9600319
vn -0.9602074 0.2685833 0.07658166
vn -0.9600319 0.2685406 0.07889579
vn -0.6230937 0.2685832 0.7345865
vn -0.6248694 0.2685406 0.7330922
vn 0.8024283 0.5440667 0.2451533
vn 0.8030574 0.5440012 0.2432317
vn 0.7398243 0.5440668 -0.3957921
vn 0.7408132 0.5440012 -0.3940285
vn 0.3957921 0.5440668 0.7398243
vn 0.3940285 0.5440012 0.7408132
vn -0.2451533 0.5440667 0.8024283
vn -0.7398243 0.5440668 0.3957921
vn -0.2432317 0.5440012 0.8030574
vn -0.7408132 0.5440012 0.3940285
vn -0.8024283 0.5440667 -0.2451533
vn -0.8030574 0.5440012 -0.2432317
vn 0.2451533 0.5440667 -0.8024283
vn 0.2432317 0.5440012 -0.8030574
vn -0.3957921 0.5440668 -0.7398243
vn -0.3940285 0.5440012 -0.7408132
vn -0.5064621 0.1708283 0.845171
vn -0.5044269 0.1707999 0.8463929
vn 0.2417481 0.1708283 0.9551836
vn 0.2394473 0.1707999 0.955768
vn -0.9551836 0.1708283 0.2417481
vn -0.955768 0.1707999 0.2394473
vn -0.845171 0.1708283 -0.5064621
vn -0.2417481 0.1708283 -0.9551836
vn -0.8463929 0.1707999 -0.5044269
vn -0.2394473 0.1707999 -0.955768
vn 0.5064621 0.1708283 -0.845171
vn 0.5044269 0.1707999 -0.8463929
vn 0.845171 0.1708283 0.5064621
vn 0.8463929 0.1707999 0.5044269
vn 0.9551836 0.1708283 -0.2417481
vn 0.955768 0.1707999 -0.2394473
vn -0.7808995 0.4323518 -0.4508525
vn 0 0.4323518 -0.901705
vn -0.7808995 0.4323518 0.4508525
vn 0.7808995 0.4323518 -0.4508525
vn 0 0.4323518 0.901705
vn 0.7808995 0.4323518 0.4508525
vn -0.9206099 0.07808344 -0.3825967
vn -0.9215301 0.07807016 -0.3803781
vn -0.9206099 0.07808344 0.3825967
vn -0.9215301 0.07807016 0.3803781
vn -0.3825967 0.07808345 -0.92061
vn -0.3803781 0.07807016 -0.9215301
vn 0.3825967 0.07808345 -0.92061
vn 0.9206099 0.07808344 -0.3825967
vn 0.3803781 0.07807016 -0.9215301
vn 0.9215301 0.07807016 -0.3803781
vn 0.9206099 0.07808344 0.3825967
vn 0.9215301 0.07807016 0.3803781
vn -0.3825967 0.07808345 0.92061
vn -0.3803781 0.07807016 0.9215301
vn 0.3825967 0.07808345 0.92061
vn 0.3803781 0.07807016 0.9215301

vt 0.96875 0.1571383
vt 0.96875 0.1349969
vt 0.96875 0.1266481
vt 0.96875 0.1172421
vt 0.96875 0.1641851
vt 0.96875 0.1405636
vt 0.96875 0.1187738
vt 0.96875 0.1243308
vt 0.96875 0.121779
vt 0.96875 0.1451895
vt 0.96875 0.1523029
vt 0.96875 0.2182525
vt 0.96875 0.05754431
vt 0.96875 0.1010161
vt 0.96875 0.1235724
vt 0.96875 0.170466
vt 0.96875 0.1102734
vt 0.96875 0.1938855
vt 0.96875 0.1502652
vt 0.96875 0.1551793

usemtl colormap

f 3/1/3 2/2/2 1/1/1
f 2/2/2 3/1/3 4/2/4
f 2/2/2 5/1/5 1/1/1
f 5/1/5 2/2/2 6/2/6
f 9/2/9 8/1/8 7/1/7
f 8/1/8 9/2/9 10/2/10
f 10/2/10 11/1/11 8/1/8
f 11/1/11 10/2/10 12/2/12
f 14/2/14 3/1/3 13/1/13
f 3/1/3 14/2/14 4/2/4
f 9/2/15 12/2/15 10/2/15
f 12/2/15 9/2/15 15/2/15
f 15/2/15 9/2/15 6/2/15
f 15/2/15 6/2/15 14/2/15
f 14/2/15 6/2/15 2/2/15
f 14/2/15 2/2/15 4/2/15
f 15/2/17 13/1/13 16/1/16
f 13/1/13 15/2/17 14/2/14
f 12/2/12 16/1/16 11/1/11
f 16/1/16 12/2/12 15/2/17
f 6/2/6 7/1/7 5/1/5
f 7/1/7 6/2/6 9/2/9
f 16/1/18 8/1/18 11/1/18
f 8/1/18 16/1/18 7/1/18
f 7/1/18 16/1/18 13/1/18
f 7/1/18 13/1/18 5/1/18
f 5/1/18 13/1/18 3/1/18
f 5/1/18 3/1/18 1/1/18
f 19/3/18 18/3/18 17/3/18
f 18/3/18 19/3/18 20/3/18
f 20/3/18 19/3/18 21/3/18
f 20/3/18 21/3/18 22/3/18
f 25/4/15 24/4/15 23/4/15
f 24/4/15 25/4/15 26/4/15
f 26/4/15 25/4/15 27/4/15
f 26/4/15 27/4/15 28/4/15
f 27/4/19 20/3/20 22/3/19
f 20/3/20 27/4/19 25/4/20
f 21/3/21 27/4/19 22/3/19
f 27/4/19 21/3/21 28/4/21
f 25/4/20 18/3/22 20/3/20
f 18/3/22 25/4/20 23/4/22
f 26/4/23 21/3/21 19/3/23
f 21/3/21 26/4/23 28/4/21
f 23/4/22 17/3/24 18/3/22
f 17/3/24 23/4/22 24/4/24
f 24/4/24 19/3/23 17/3/24
f 19/3/23 24/4/24 26/4/23
f 31/5/27 30/6/26 29/5/25
f 30/6/26 31/5/27 32/6/28
f 30/6/26 33/5/29 29/5/25
f 33/5/29 30/6/26 34/6/30
f 37/6/33 36/5/32 35/5/31
f 36/5/32 37/6/33 38/6/34
f 38/6/34 39/5/35 36/5/32
f 39/5/35 38/6/34 40/6/36
f 42/6/38 31/5/27 41/5/37
f 31/5/27 42/6/38 32/6/28
f 37/6/15 40/6/15 38/6/15
f 40/6/15 37/6/15 43/6/15
f 43/6/15 37/6/15 34/6/15
f 43/6/15 34/6/15 42/6/15
f 42/6/15 34/6/15 30/6/15
f 42/6/15 30/6/15 32/6/15
f 44/5/18 36/5/18 39/5/18
f 36/5/18 44/5/18 35/5/18
f 35/5/18 44/5/18 41/5/18
f 35/5/18 41/5/18 33/5/18
f 33/5/18 41/5/18 31/5/18
f 33/5/18 31/5/18 29/5/18
f 43/6/40 41/5/37 44/5/39
f 41/5/37 43/6/40 42/6/38
f 40/6/36 44/5/39 39/5/35
f 44/5/39 40/6/36 43/6/40
f 34/6/30 35/5/31 33/5/29
f 35/5/31 34/6/30 37/6/33
f 47/7/43 46/8/42 45/7/41
f 46/8/42 47/7/43 48/8/44
f 46/8/42 49/7/45 45/7/41
f 49/7/45 46/8/42 50/8/46
f 53/8/49 52/7/48 51/7/47
f 52/7/48 53/8/49 54/8/50
f 54/8/50 55/7/51 52/7/48
f 55/7/51 54/8/50 56/8/52
f 58/8/54 47/7/43 57/7/53
f 47/7/43 58/8/54 48/8/44
f 53/8/15 56/8/15 54/8/15
f 56/8/15 53/8/15 59/8/15
f 59/8/15 53/8/15 50/8/15
f 59/8/15 50/8/15 58/8/15
f 58/8/15 50/8/15 46/8/15
f 58/8/15 46/8/15 48/8/15
f 60/7/18 52/7/18 55/7/18
f 52/7/18 60/7/18 51/7/18
f 51/7/18 60/7/18 57/7/18
f 51/7/18 57/7/18 49/7/18
f 49/7/18 57/7/18 47/7/18
f 49/7/18 47/7/18 45/7/18
f 59/8/56 57/7/53 60/7/55
f 57/7/53 59/8/56 58/8/54
f 56/8/52 60/7/55 55/7/51
f 60/7/55 56/8/52 59/8/56
f 50/8/46 51/7/47 49/7/45
f 51/7/47 50/8/46 53/8/49
f 63/9/59 62/10/58 61/9/57
f 62/10/58 63/9/59 64/10/60
f 62/10/58 65/9/61 61/9/57
f 65/9/61 62/10/58 66/10/62
f 69/10/65 68/9/64 67/9/63
f 68/9/64 69/10/65 70/10/66
f 70/10/66 71/9/67 68/9/64
f 71/9/67 70/10/66 72/10/68
f 74/10/70 63/9/59 73/9/69
f 63/9/59 74/10/70 64/10/60
f 69/10/15 72/10/15 70/10/15
f 72/10/15 69/10/15 75/10/15
f 75/10/15 69/10/15 66/10/15
f 75/10/15 66/10/15 74/10/15
f 74/10/15 66/10/15 62/10/15
f 74/10/15 62/10/15 64/10/15
f 76/9/18 68/9/18 71/9/18
f 68/9/18 76/9/18 67/9/18
f 67/9/18 76/9/18 73/9/18
f 67/9/18 73/9/18 65/9/18
f 65/9/18 73/9/18 63/9/18
f 65/9/18 63/9/18 61/9/18
f 75/10/72 73/9/69 76/9/71
f 73/9/69 75/10/72 74/10/70
f 72/10/68 76/9/71 71/9/67
f 76/9/71 72/10/68 75/10/72
f 66/10/62 67/9/63 65/9/61
f 67/9/63 66/10/62 69/10/65
f 79/11/18 78/11/18 77/11/18
f 78/11/18 79/11/18 80/11/18
f 80/11/18 79/11/18 81/11/18
f 80/11/18 81/11/18 82/11/18
f 85/12/15 84/12/15 83/12/15
f 84/12/15 85/12/15 86/12/15
f 86/12/15 85/12/15 87/12/15
f 86/12/15 87/12/15 88/12/15
f 87/12/73 80/11/74 82/11/73
f 80/11/74 87/12/73 85/12/74
f 81/11/75 87/12/73 82/11/73
f 87/12/73 81/11/75 88/12/75
f 85/12/74 78/11/76 80/11/74
f 78/11/76 85/12/74 83/12/76
f 86/12/77 81/11/75 79/11/77
f 81/11/75 86/12/77 88/12/75
f 83/12/76 77/11/78 78/11/76
f 77/11/78 83/12/76 84/12/78
f 84/12/78 79/11/77 77/11/78
f 79/11/77 84/12/78 86/12/77
f 91/13/81 90/14/80 89/13/79
f 90/14/80 91/13/81 92/14/82
f 90/14/80 93/13/83 89/13/79
f 93/13/83 90/14/80 94/14/84
f 97/14/87 96/13/86 95/13/85
f 96/13/86 97/14/87 98/14/88
f 98/14/88 99/13/89 96/13/86
f 99/13/89 98/14/88 100/14/90
f 102/14/92 91/13/81 101/13/91
f 91/13/81 102/14/92 92/14/82
f 97/14/15 100/14/15 98/14/15
f 100/14/15 97/14/15 103/14/15
f 103/14/15 97/14/15 94/14/15
f 103/14/15 94/14/15 102/14/15
f 102/14/15 94/14/15 90/14/15
f 102/14/15 90/14/15 92/14/15
f 104/13/18 96/13/18 99/13/18
f 96/13/18 104/13/18 95/13/18
f 95/13/18 104/13/18 101/13/18
f 95/13/18 101/13/18 93/13/18
f 93/13/18 101/13/18 91/13/18
f 93/13/18 91/13/18 89/13/18
f 103/14/94 101/13/91 104/13/93
f 101/13/91 103/14/94 102/14/92
f 100/14/90 104/13/93 99/13/89
f 104/13/93 100/14/90 103/14/94
f 94/14/84 95/13/85 93/13/83
f 95/13/85 94/14/84 97/14/87
f 107/15/15 106/15/15 105/15/15
f 106/15/15 107/15/15 108/15/15
f 108/15/15 107/15/15 109/15/15
f 108/15/15 109/15/15 110/15/15
f 109/15/19 112/16/20 111/16/19
f 112/16/20 109/15/19 107/15/20
f 113/16/21 109/15/19 111/16/19
f 109/15/19 113/16/21 110/15/21
f 107/15/20 114/16/22 112/16/20
f 114/16/22 107/15/20 105/15/22
f 108/15/23 113/16/21 115/16/23
f 113/16/21 108/15/23 110/15/21
f 105/15/22 116/16/24 114/16/22
f 116/16/24 105/15/22 106/15/24
f 106/15/24 115/16/23 116/16/24
f 115/16/23 106/15/24 108/15/23
f 115/16/18 114/16/18 116/16/18
f 114/16/18 115/16/18 112/16/18
f 112/16/18 115/16/18 113/16/18
f 112/16/18 113/16/18 111/16/18
f 119/17/18 118/17/18 117/17/18
f 118/17/18 119/17/18 120/17/18
f 120/17/18 119/17/18 121/17/18
f 120/17/18 121/17/18 122/17/18
f 125/18/15 124/18/15 123/18/15
f 124/18/15 125/18/15 126/18/15
f 126/18/15 125/18/15 127/18/15
f 126/18/15 127/18/15 128/18/15
f 127/18/73 120/17/74 122/17/73
f 120/17/74 127/18/73 125/18/74
f 121/17/75 127/18/73 122/17/73
f 127/18/73 121/17/75 128/18/75
f 125/18/74 118/17/76 120/17/74
f 118/17/76 125/18/74 123/18/76
f 126/18/77 121/17/75 119/17/77
f 121/17/75 126/18/77 128/18/75
f 123/18/76 117/17/78 118/17/76
f 117/17/78 123/18/76 124/18/78
f 124/18/78 119/17/77 117/17/78
f 119/17/77 124/18/78 126/18/77
f 131/19/15 130/19/15 129/19/15
f 130/19/15 131/19/15 132/19/15
f 132/19/15 131/19/15 133/19/15
f 132/19/15 133/19/15 134/19/15
f 133/19/19 136/20/20 135/20/19
f 136/20/20 133/19/19 131/19/20
f 137/20/21 133/19/19 135/20/19
f 133/19/19 137/20/21 134/19/21
f 131/19/20 138/20/22 136/20/20
f 138/20/22 131/19/20 129/19/22
f 132/19/23 137/20/21 139/20/23
f 137/20/21 132/19/23 134/19/21
f 129/19/22 140/20/24 138/20/22
f 140/20/24 129/19/22 130/19/24
f 130/19/24 139/20/23 140/20/24
f 139/20/23 130/19/24 132/19/23

g stones




usemtl colormap

f 3/1/3 2/2/2 1/1/1
f 2/2/2 3/1/3 4/2/4
f 2/2/2 5/1/5 1/1/1
f 5/1/5 2/2/2 6/2/6
f 9/2/9 8/1/8 7/1/7
f 8/1/8 9/2/9 10/2/10
f 10/2/10 11/1/11 8/1/8
f 11/1/11 10/2/10 12/2/12
f 14/2/14 3/1/3 13/1/13
f 3/1/3 14/2/14 4/2/4
f 9/2/15 12/2/15 10/2/15
f 12/2/15 9/2/15 15/2/15
f 15/2/15 9/2/15 6/2/15
f 15/2/15 6/2/15 14/2/15
f 14/2/15 6/2/15 2/2/15
f 14/2/15 2/2/15 4/2/15
f 15/2/17 13/1/13 16/1/16
f 13/1/13 15/2/17 14/2/14
f 12/2/12 16/1/16 11/1/11
f 16/1/16 12/2/12 15/2/17
f 6/2/6 7/1/7 5/1/5
f 7/1/7 6/2/6 9/2/9
f 16/1/18 8/1/18 11/1/18
f 8/1/18 16/1/18 7/1/18
f 7/1/18 16/1/18 13/1/18
f 7/1/18 13/1/18 5/1/18
f 5/1/18 13/1/18 3/1/18
f 5/1/18 3/1/18 1/1/18
f 19/3/18 18/3/18 17/3/18
f 18/3/18 19/3/18 20/3/18
f 20/3/18 19/3/18 21/3/18
f 20/3/18 21/3/18 22/3/18
f 25/4/15 24/4/15 23/4/15
f 24/4/15 25/4/15 26/4/15
f 26/4/15 25/4/15 27/4/15
f 26/4/15 27/4/15 28/4/15
f 27/4/19 20/3/20 22/3/19
f 20/3/20 27/4/19 25/4/20
f 21/3/21 27/4/19 22/3/19
f 27/4/19 21/3/21 28/4/21
f 25/4/20 18/3/22 20/3/20
f 18/3/22 25/4/20 23/4/22
f 26/4/23 21/3/21 19/3/23
f 21/3/21 26/4/23 28/4/21
f 23/4/22 17/3/24 18/3/22
f 17/3/24 23/4/22 24/4/24
f 24/4/24 19/3/23 17/3/24
f 19/3/23 24/4/24 26/4/23
f 31/5/27 30/6/26 29/5/25
f 30/6/26 31/5/27 32/6/28
f 30/6/26 33/5/29 29/5/25
f 33/5/29 30/6/26 34/6/30
f 37/6/33 36/5/32 35/5/31
f 36/5/32 37/6/33 38/6/34
f 38/6/34 39/5/35 36/5/32
f 39/5/35 38/6/34 40/6/36
f 42/6/38 31/5/27 41/5/37
f 31/5/27 42/6/38 32/6/28
f 37/6/15 40/6/15 38/6/15
f 40/6/15 37/6/15 43/6/15
f 43/6/15 37/6/15 34/6/15
f 43/6/15 34/6/15 42/6/15
f 42/6/15 34/6/15 30/6/15
f 42/6/15 30/6/15 32/6/15
f 44/5/18 36/5/18 39/5/18
f 36/5/18 44/5/18 35/5/18
f 35/5/18 44/5/18 41/5/18
f 35/5/18 41/5/18 33/5/18
f 33/5/18 41/5/18 31/5/18
f 33/5/18 31/5/18 29/5/18
f 43/6/40 41/5/37 44/5/39
f 41/5/37 43/6/40 42/6/38
f 40/6/36 44/5/39 39/5/35
f 44/5/39 40/6/36 43/6/40
f 34/6/30 35/5/31 33/5/29
f 35/5/31 34/6/30 37/6/33
f 47/7/43 46/8/42 45/7/41
f 46/8/42 47/7/43 48/8/44
f 46/8/42 49/7/45 45/7/41
f 49/7/45 46/8/42 50/8/46
f 53/8/49 52/7/48 51/7/47
f 52/7/48 53/8/49 54/8/50
f 54/8/50 55/7/51 52/7/48
f 55/7/51 54/8/50 56/8/52
f 58/8/54 47/7/43 57/7/53
f 47/7/43 58/8/54 48/8/44
f 53/8/15 56/8/15 54/8/15
f 56/8/15 53/8/15 59/8/15
f 59/8/15 53/8/15 50/8/15
f 59/8/15 50/8/15 58/8/15
f 58/8/15 50/8/15 46/8/15
f 58/8/15 46/8/15 48/8/15
f 60/7/18 52/7/18 55/7/18
f 52/7/18 60/7/18 51/7/18
f 51/7/18 60/7/18 57/7/18
f 51/7/18 57/7/18 49/7/18
f 49/7/18 57/7/18 47/7/18
f 49/7/18 47/7/18 45/7/18
f 59/8/56 57/7/53 60/7/55
f 57/7/53 59/8/56 58/8/54
f 56/8/52 60/7/55 55/7/51
f 60/7/55 56/8/52 59/8/56
f 50/8/46 51/7/47 49/7/45
f 51/7/47 50/8/46 53/8/49
f 63/9/59 62/10/58 61/9/57
f 62/10/58 63/9/59 64/10/60
f 62/10/58 65/9/61 61/9/57
f 65/9/61 62/10/58 66/10/62
f 69/10/65 68/9/64 67/9/63
f 68/9/64 69/10/65 70/10/66
f 70/10/66 71/9/67 68/9/64
f 71/9/67 70/10/66 72/10/68
f 74/10/70 63/9/59 73/9/69
f 63/9/59 74/10/70 64/10/60
f 69/10/15 72/10/15 70/10/15
f 72/10/15 69/10/15 75/10/15
f 75/10/15 69/10/15 66/10/15
f 75/10/15 66/10/15 74/10/15
f 74/10/15 66/10/15 62/10/15
f 74/10/15 62/10/15 64/10/15
f 76/9/18 68/9/18 71/9/18
f 68/9/18 76/9/18 67/9/18
f 67/9/18 76/9/18 73/9/18
f 67/9/18 73/9/18 65/9/18
f 65/9/18 73/9/18 63/9/18
f 65/9/18 63/9/18 61/9/18
f 75/10/72 73/9/69 76/9/71
f 73/9/69 75/10/72 74/10/70
f 72/10/68 76/9/71 71/9/67
f 76/9/71 72/10/68 75/10/72
f 66/10/62 67/9/63 65/9/61
f 67/9/63 66/10/62 69/10/65
f 79/11/18 78/11/18 77/11/18
f 78/11/18 79/11/18 80/11/18
f 80/11/18 79/11/18 81/11/18
f 80/11/18 81/11/18 82/11/18
f 85/12/15 84/12/15 83/12/15
f 84/12/15 85/12/15 86/12/15
f 86/12/15 85/12/15 87/12/15
f 86/12/15 87/12/15 88/12/15
f 87/12/73 80/11/74 82/11/73
f 80/11/74 87/12/73 85/12/74
f 81/11/75 87/12/73 82/11/73
f 87/12/73 81/11/75 88/12/75
f 85/12/74 78/11/76 80/11/74
f 78/11/76 85/12/74 83/12/76
f 86/12/77 81/11/75 79/11/77
f 81/11/75 86/12/77 88/12/75
f 83/12/76 77/11/78 78/11/76
f 77/11/78 83/12/76 84/12/78
f 84/12/78 79/11/77 77/11/78
f 79/11/77 84/12/78 86/12/77
f 91/13/81 90/14/80 89/13/79
f 90/14/80 91/13/81 92/14/82
f 90/14/80 93/13/83 89/13/79
f 93/13/83 90/14/80 94/14/84
f 97/14/87 96/13/86 95/13/85
f 96/13/86 97/14/87 98/14/88
f 98/14/88 99/13/89 96/13/86
f 99/13/89 98/14/88 100/14/90
f 102/14/92 91/13/81 101/13/91
f 91/13/81 102/14/92 92/14/82
f 97/14/15 100/14/15 98/14/15
f 100/14/15 97/14/15 103/14/15
f 103/14/15 97/14/15 94/14/15
f 103/14/15 94/14/15 102/14/15
f 102/14/15 94/14/15 90/14/15
f 102/14/15 90/14/15 92/14/15
f 104/13/18 96/13/18 99/13/18
f 96/13/18 104/13/18 95/13/18
f 95/13/18 104/13/18 101/13/18
f 95/13/18 101/13/18 93/13/18
f 93/13/18 101/13/18 91/13/18
f 93/13/18 91/13/18 89/13/18
f 103/14/94 101/13/91 104/13/93
f 101/13/91 103/14/94 102/14/92
f 100/14/90 104/13/93 99/13/89
f 104/13/93 100/14/90 103/14/94
f 94/14/84 95/13/85 93/13/83
f 95/13/85 94/14/84 97/14/87
f 107/15/15 106/15/15 105/15/15
f 106/15/15 107/15/15 108/15/15
f 108/15/15 107/15/15 109/15/15
f 108/15/15 109/15/15 110/15/15
f 109/15/19 112/16/20 111/16/19
f 112/16/20 109/15/19 107/15/20
f 113/16/21 109/15/19 111/16/19
f 109/15/19 113/16/21 110/15/21
f 107/15/20 114/16/22 112/16/20
f 114/16/22 107/15/20 105/15/22
f 108/15/23 113/16/21 115/16/23
f 113/16/21 108/15/23 110/15/21
f 105/15/22 116/16/24 114/16/22
f 116/16/24 105/15/22 106/15/24
f 106/15/24 115/16/23 116/16/24
f 115/16/23 106/15/24 108/15/23
f 115/16/18 114/16/18 116/16/18
f 114/16/18 115/16/18 112/16/18
f 112/16/18 115/16/18 113/16/18
f 112/16/18 113/16/18 111/16/18
f 119/17/18 118/17/18 117/17/18
f 118/17/18 119/17/18 120/17/18
f 120/17/18 119/17/18 121/17/18
f 120/17/18 121/17/18 122/17/18
f 125/18/15 124/18/15 123/18/15
f 124/18/15 125/18/15 126/18/15
f 126/18/15 125/18/15 127/18/15
f 126/18/15 127/18/15 128/18/15
f 127/18/73 120/17/74 122/17/73
f 120/17/74 127/18/73 125/18/74
f 121/17/75 127/18/73 122/17/73
f 127/18/73 121/17/75 128/18/75
f 125/18/74 118/17/76 120/17/74
f 118/17/76 125/18/74 123/18/76
f 126/18/77 121/17/75 119/17/77
f 121/17/75 126/18/77 128/18/75
f 123/18/76 117/17/78 118/17/76
f 117/17/78 123/18/76 124/18/78
f 124/18/78 119/17/77 117/17/78
f 119/17/77 124/18/78 126/18/77
f 131/19/15 130/19/15 129/19/15
f 130/19/15 131/19/15 132/19/15
f 132/19/15 131/19/15 133/19/15
f 132/19/15 133/19/15 134/19/15
f 133/19/19 136/20/20 135/20/19
f 136/20/20 133/19/19 131/19/20
f 137/20/21 133/19/19 135/20/19
f 133/19/19 137/20/21 134/19/21
f 131/19/20 138/20/22 136/20/20
f 138/20/22 131/19/20 129/19/22
f 132/19/23 137/20/21 139/20/23
f 137/20/21 132/19/23 134/19/21
f 129/19/22 140/20/24 138/20/22
f 140/20/24 129/19/22 130/19/24
f 130/19/24 139/20/23 140/20/24
f 139/20/23 130/19/24 132/19/23

