# Created by Kenney (www.kenney.nl)

mtllib weapon-arrow.mtl

g weapon-arrow

v 0.025875 0.02587499 -0.227975 1 1 1
v -0.025875 0.02587499 -0.227975 1 1 1
v 0.025875 -0.02587501 -0.227975 1 1 1
v -0.025875 -0.02587501 -0.227975 1 1 1
v -0.0345 0.0345 0.07202503 1 1 1
v 0.0345 0.0345 0.07202503 1 1 1
v -0.0345 -0.0345 0.07202503 1 1 1
v 0.0345 -0.0345 0.07202503 1 1 1
v -0.0108675 0.0108675 0.227975 1 1 1
v 0.0108675 0.0108675 0.227975 1 1 1
v -0.0108675 -0.0108675 0.227975 1 1 1
v 0.0108675 -0.0108675 0.227975 1 1 1
v -0.021735 -0.021735 0.122025 1 1 1
v -0.021735 -0.0460782 0.175 1 1 1
v 0.021735 -0.021735 0.122025 1 1 1
v 0.021735 -0.0460782 0.175 1 1 1
v -0.021735 0.0460782 0.175 1 1 1
v -0.021735 0.021735 0.122025 1 1 1
v 0.021735 0.0460782 0.175 1 1 1
v 0.021735 0.021735 0.122025 1 1 1
v 0.0595 0.0295 0.072025 1 1 1
v 0.0595 -0.0295 0.072025 1 1 1
v 0.0595 0.0295 0.122025 1 1 1
v 0.0595 -0.0295 0.122025 1 1 1
v 0.0295 -0.0595 0.072025 1 1 1
v 0.0295 -0.0595 0.122025 1 1 1
v -0.0295 0.0595 0.122025 1 1 1
v -0.0295 0.0595 0.072025 1 1 1
v 0.0295 0.0595 0.122025 1 1 1
v 0.0295 0.0595 0.072025 1 1 1
v -0.0595 0.0295 0.122025 1 1 1
v -0.0595 -0.0295 0.122025 1 1 1
v -0.0295 -0.0595 0.122025 1 1 1
v -0.0595 0.0295 0.072025 1 1 1
v -0.0595 -0.0295 0.072025 1 1 1
v -0.0295 -0.0595 0.072025 1 1 1

vn 0 0 -1
vn 0 0 1
vn 0 0.999587 -0.02873812
vn -0.999587 0 -0.02873812
vn 0.999587 0 -0.02873812
vn 0 -0.999587 -0.02873812
vn 0 -0.9086552 -0.4175474
vn 0 -0.9984393 0.05584835
vn 0.7689533 -0.5809076 -0.2669401
vn 0.6365601 -0.7642249 0.1036884
vn 0 0.9984393 0.05584835
vn 0 0.9086552 -0.4175474
vn 1 0 0
vn 0.9954486 0 0.09529914
vn -1 0 0
vn -0.9954486 0 0.09529914
vn 0.9795997 0 0.2009589
vn 0 0.8328184 0.5535463
vn -0.9795997 0 0.2009589
vn 0 -0.8328184 0.5535463
vn 0.9238796 0.3826835 0
vn 0.9238796 -0.3826835 0
vn 0.3826835 -0.9238796 0
vn -0.3826835 0.9238796 0
vn 0.3826835 0.9238796 0
vn -0.9238796 -0.3826835 0
vn -0.9238796 0.3826835 0
vn -0.3826835 -0.9238796 0

vt 0.96875 0.225
vt 0.96875 0.025
vt 0.71875 0.175
vt 0.71875 0.075
vt 0.71875 0.125

usemtl colormap

f 3/1/1 2/1/1 1/1/1
f 2/1/1 3/1/1 4/1/1
f 7/2/2 6/2/2 5/2/2
f 6/2/2 7/2/2 8/2/2
f 6/2/3 2/1/3 5/2/3
f 2/1/3 6/2/3 1/1/3
f 7/2/4 2/1/4 4/1/4
f 2/1/4 7/2/4 5/2/4
f 6/2/5 3/1/5 1/1/5
f 3/1/5 6/2/5 8/2/5
f 4/1/6 8/2/6 7/2/6
f 8/2/6 4/1/6 3/1/6
f 11/3/2 10/3/2 9/3/2
f 10/3/2 11/3/2 12/3/2
f 15/4/9 14/5/8 13/4/7
f 14/5/8 15/4/9 16/5/10
f 19/5/11 18/4/12 17/5/11
f 18/4/12 19/5/11 20/4/12
f 19/5/14 15/4/9 20/4/13
f 15/4/9 19/5/14 16/5/10
f 14/5/16 18/4/15 13/4/15
f 18/4/15 14/5/16 17/5/16
f 10/3/17 16/5/10 19/5/14
f 16/5/10 10/3/17 12/3/17
f 9/3/18 19/5/11 17/5/11
f 19/5/11 9/3/18 10/3/18
f 11/3/19 17/5/16 14/5/16
f 17/5/16 11/3/19 9/3/19
f 16/5/10 11/3/20 14/5/8
f 11/3/20 16/5/10 12/3/20
f 23/3/21 22/4/22 21/4/21
f 22/4/22 23/3/21 24/3/22
f 22/4/22 26/3/23 25/4/23
f 26/3/23 22/4/22 24/3/22
f 29/3/25 28/4/24 27/3/24
f 28/4/24 29/3/25 30/4/25
f 23/3/21 30/4/25 29/3/25
f 30/4/25 23/3/21 21/4/21
f 31/3/2 29/3/2 27/3/2
f 29/3/2 31/3/2 23/3/2
f 23/3/2 31/3/2 32/3/2
f 23/3/2 32/3/2 24/3/2
f 24/3/2 32/3/2 33/3/2
f 24/3/2 33/3/2 26/3/2
f 21/4/1 28/4/1 30/4/1
f 28/4/1 21/4/1 34/4/1
f 34/4/1 21/4/1 22/4/1
f 34/4/1 22/4/1 35/4/1
f 35/4/1 22/4/1 25/4/1
f 35/4/1 25/4/1 36/4/1
f 32/3/26 34/4/27 35/4/26
f 34/4/27 32/3/26 31/3/27
f 27/3/24 34/4/27 31/3/27
f 34/4/27 27/3/24 28/4/24
f 25/4/23 33/3/28 36/4/28
f 33/3/28 25/4/23 26/3/23
f 36/4/28 32/3/26 35/4/26
f 32/3/26 36/4/28 33/3/28

g weapon-arrow




usemtl colormap

f 3/1/1 2/1/1 1/1/1
f 2/1/1 3/1/1 4/1/1
f 7/2/2 6/2/2 5/2/2
f 6/2/2 7/2/2 8/2/2
f 6/2/3 2/1/3 5/2/3
f 2/1/3 6/2/3 1/1/3
f 7/2/4 2/1/4 4/1/4
f 2/1/4 7/2/4 5/2/4
f 6/2/5 3/1/5 1/1/5
f 3/1/5 6/2/5 8/2/5
f 4/1/6 8/2/6 7/2/6
f 8/2/6 4/1/6 3/1/6
f 11/3/2 10/3/2 9/3/2
f 10/3/2 11/3/2 12/3/2
f 15/4/9 14/5/8 13/4/7
f 14/5/8 15/4/9 16/5/10
f 19/5/11 18/4/12 17/5/11
f 18/4/12 19/5/11 20/4/12
f 19/5/14 15/4/9 20/4/13
f 15/4/9 19/5/14 16/5/10
f 14/5/16 18/4/15 13/4/15
f 18/4/15 14/5/16 17/5/16
f 10/3/17 16/5/10 19/5/14
f 16/5/10 10/3/17 12/3/17
f 9/3/18 19/5/11 17/5/11
f 19/5/11 9/3/18 10/3/18
f 11/3/19 17/5/16 14/5/16
f 17/5/16 11/3/19 9/3/19
f 16/5/10 11/3/20 14/5/8
f 11/3/20 16/5/10 12/3/20
f 23/3/21 22/4/22 21/4/21
f 22/4/22 23/3/21 24/3/22
f 22/4/22 26/3/23 25/4/23
f 26/3/23 22/4/22 24/3/22
f 29/3/25 28/4/24 27/3/24
f 28/4/24 29/3/25 30/4/25
f 23/3/21 30/4/25 29/3/25
f 30/4/25 23/3/21 21/4/21
f 31/3/2 29/3/2 27/3/2
f 29/3/2 31/3/2 23/3/2
f 23/3/2 31/3/2 32/3/2
f 23/3/2 32/3/2 24/3/2
f 24/3/2 32/3/2 33/3/2
f 24/3/2 33/3/2 26/3/2
f 21/4/1 28/4/1 30/4/1
f 28/4/1 21/4/1 34/4/1
f 34/4/1 21/4/1 22/4/1
f 34/4/1 22/4/1 35/4/1
f 35/4/1 22/4/1 25/4/1
f 35/4/1 25/4/1 36/4/1
f 32/3/26 34/4/27 35/4/26
f 34/4/27 32/3/26 31/3/27
f 27/3/24 34/4/27 31/3/27
f 34/4/27 27/3/24 28/4/24
f 25/4/23 33/3/28 36/4/28
f 33/3/28 25/4/23 26/3/23
f 36/4/28 32/3/26 35/4/26
f 32/3/26 36/4/28 33/3/28

